/* XPM */
static char *fccb9ac7b9e54c3ebc6809ecd422518bMZdsWxQkhmb9Nrdv[] = {
/* columns rows colors chars-per-pixel */
"48 48 16 1 ",
"  c #00007C",
". c #0000A4",
"X c #000098",
"o c #000064",
"O c #000070",
"+ c black",
"@ c #202020",
"# c #0000BC",
"$ c #000058",
"% c #000088",
"& c #0000B0",
"* c #000040",
"= c #0000E0",
"- c #0000C8",
"; c #0000D4",
": c #00004C",
/* pixels */
" .X.oXX O  Oo+@##.XXXOX$O$$ ..oOOoOO$O%%OoO+@&&.",
"  X%% o$ O$$o+@+++++++++++++++++++++++++++++@&.&",
"  .XXX%OO $$*+@...................@@@@@@@@@@@&#.",
"X...XXOOo$oOo+@.###&.XX#XX&XX&##..+@....XXo@@&XX",
" o..X%% oo$**+@.&#=-&.#.XXX&&...X.+@.XX%X o+@&XX",
" XOO%%%O  o$*+@.&-#-X&..#XX. . X. +@.XXX  o+@&#.",
"..O$ooOo   $*+@.&&&XXX&....X%o   o+@..X  $$+@#  ",
"..OOo$ooo  $*+@.#&&&XX&##..oo%  o$+@..X . $+@# #",
" $ o$o *$**o*+@.#..&&&&#&&.ooO.oo*+@. %X $$+@## ",
"o o o*OO***o*+@.&..X#XX.&&.XX  $$o+@.%%%OOo+@# O",
"$o oOo**O*o$*+@.&=-%%XX%   %X% oo*+@..%%OOo+@#  ",
"o************+@.#--%%%.. %% %O o$*+@. X.$$$+@+++",
"++++++++++++++@.#..X%%...%%Xoo o$*+@...X.$o+@@@@",
".&....+&&&..XX+.&X.%X.... XX  $$**+@X.X.XOo+@...",
".. .X +&&X## #+....#.X...%oO **o$*+@XX O O$+@.&%",
"XX  XX+&##&X  +.&X.#.% %%o  O**o**+@XX$$$o*+@.&&",
" X    +&#&&XXo+.&...%.  oOO$$$oo$*+@X $o$$*+@.% ",
"X X$  +&#X XXo+...XXXX o$oo$oo$***+@X o$$**+@.$o",
" ooO  +&X#   o+++++++++++++++++++++@++++++++++++",
"XoO $$+&XXo  $+@@@@@@@@@@@@@@@@@@@@@@@@@&&&&&&&&",
" O o $+&#X%o$o+@&&&&&&&&&&&&&&&&&&&&X.@@&-&-...X",
"  O$$$+.# %%o$+@&#&.###&#.&.#& .### .$+@&-&--.X%",
"X%%O$o+. oOO$o+@&#.&-==#;=.#..##.... $+@&----.% ",
" %%O$o+X $$$$o+@&&.#;;=#=;;& .  .  .$$+@&&.-.%.o",
" OOO$$+++++++++@&##&&--..;;..   O.  $$+@&-....%o",
"O$o$**+@@@@@@@@@&&#&&&...#... %%  $$$o+@&--..% O",
"o$oo$$+@&&&&..@@&..#&%%.#& .. %%%OOO$$+@&--XX..$",
"$$$o*o+@&&%.X%+@&#&#&%%... ...O%%$OOO*+@&&-XXX.$",
"O  o**+@&..X%X+@&##.&&&X.   ..O$o$oOO*+@&&.%&..o",
"O  o$*+@&.X%Oo+@&#. .&&.. O oOOO$**$**+@&&-%&&Xo",
"::Oo$*+@&&%&%$+@&..# ..X O  ooOOo**oo*+@&.-.%XX$",
"::$$o*+@&&&OOo+@& # ..  Oo   oo$$ooo:*+@&-..X$Oo",
"$o$$$$+@&&&.$$+@&.# ..Ooo$   o$$$$:::*+@&-.X XO$",
"o$*$o$+@&XX$%o+@&. .. $$$$oooo$*******+@&-. XX o",
"**$***+@&XX&$o+@+++++++++++++++++++++++@.&. o  o",
"$*o*$*+@&&%&%$+@@@@@@@@@@@@@@@@@@@@@@@@@.&&. $o*",
"******+@&&%%$o+@......................@@.&.#. o*",
"+++++++@&&  $$+@.######&.......X% #X. +@.-..#%$*",
"%%% Oo@@.&   $+@&#--#..&&-#XX..X % %X +@....%%$*",
"######@@..%  o+@&#---&&&&##    ...XX o+@.-. O$$*",
"&#...#+@..X$oo+@&####;;&&&      X  OXo+@.&%Oo$O*",
"##X.##+@.X%$$$+@&##&#;;; .X  OOO%    o+@..OoO$$*",
"X.##X&+@+++++++@.&#&##;;#..X OOoo$   o+@%  $$$o*",
"XX#.%%+@@@@@@@@@..&-XX#.#....  oo o$::+@++++++++",
"XX.##.+@##&..X@@..--XXX&...  X%Ooo$$**+@@@@@@@@@",
"&&& ..+@# #%X%+@.###&XX###.    ooo$$**+@&&&&####",
"&  .%.+@#.&&X +@.&..&&&####. %O$oooO$:+@&&..&&&&",
"X : ..+@## . O+@.#...X.####...$$$$oOOo+@&.&;;&&&"
};
