/* XPM */
static const char *blue_wall[] = {
/* columns rows colors chars-per-pixel */
"64 64 167 2 ",
"   c #02010B",
".  c #0C060B",
"X  c #0E080A",
"o  c #150A07",
"O  c #13090B",
"+  c #010115",
"@  c #0B0514",
"#  c #0F0816",
"$  c #010118",
"%  c #0D061D",
"&  c #0F0819",
"*  c #100716",
"=  c #110812",
"-  c #10071A",
";  c #110819",
":  c #050224",
">  c #0C0523",
",  c #05022C",
"<  c #0A052B",
"1  c #100722",
"2  c #100821",
"3  c #10072A",
"4  c #040234",
"5  c #090434",
"6  c #01003C",
"7  c #090439",
"8  c #020045",
"9  c #030145",
"0  c #020044",
"q  c #000046",
"w  c #010046",
"e  c #000047",
"r  c #010047",
"t  c #020046",
"y  c #020047",
"u  c #030147",
"i  c #010045",
"p  c #040144",
"a  c #050247",
"s  c #020044",
"d  c #080442",
"f  c #010048",
"g  c #010049",
"h  c #020048",
"j  c #020049",
"k  c #01004A",
"l  c #00004B",
"z  c #01004B",
"x  c #02004A",
"c  c #03014A",
"v  c #02004B",
"b  c #03014B",
"n  c #060249",
"m  c #05024A",
"M  c #05024B",
"N  c #01004C",
"B  c #00004D",
"V  c #01004D",
"C  c #02004C",
"Z  c #02004D",
"A  c #01004E",
"S  c #00004F",
"D  c #01004F",
"F  c #02004F",
"G  c #01004B",
"H  c #000050",
"J  c #010050",
"K  c #000051",
"L  c #010051",
"P  c #030150",
"I  c #000052",
"U  c #010052",
"Y  c #000053",
"T  c #010053",
"R  c #020053",
"E  c #000054",
"W  c #010054",
"Q  c #000055",
"!  c #010055",
"~  c #020154",
"^  c #000056",
"/  c #010056",
"(  c #000057",
")  c #010057",
"_  c #040154",
"`  c #010053",
"'  c #000058",
"]  c #010058",
"[  c #000059",
"{  c #010059",
"}  c #020158",
"|  c #00005A",
" . c #01005A",
".. c #00005B",
"X. c #01005B",
"o. c #02005B",
"O. c #02015B",
"+. c #050259",
"@. c #00005C",
"#. c #01005C",
"$. c #00005D",
"%. c #01005D",
"&. c #02015C",
"*. c #02015D",
"=. c #00005E",
"-. c #01005E",
";. c #00005F",
":. c #01005F",
">. c #02015E",
",. c #05025C",
"<. c #01005B",
"1. c #000060",
"2. c #010060",
"3. c #000061",
"4. c #010061",
"5. c #020160",
"6. c #020061",
"7. c #020161",
"8. c #000062",
"9. c #010062",
"0. c #000063",
"q. c #010063",
"w. c #000064",
"e. c #010064",
"r. c #000065",
"t. c #000066",
"y. c #010066",
"u. c #000067",
"i. c #010067",
"p. c #020066",
"a. c #040265",
"s. c #000063",
"d. c #000068",
"f. c #010068",
"g. c #000069",
"h. c #00006A",
"j. c #01006A",
"k. c #01006B",
"l. c #00006D",
"z. c #01006E",
"x. c #05026D",
"c. c #01006B",
"v. c #000070",
"b. c #010070",
"n. c #000071",
"m. c #010071",
"M. c #020170",
"N. c #020071",
"B. c #000072",
"V. c #000073",
"C. c #000075",
"Z. c #010075",
"A. c #000077",
"S. c #010077",
"D. c #000073",
"F. c #010078",
"G. c #010079",
"H. c #02007A",
"J. c #01007C",
"K. c #00007E",
"L. c #00007F",
"P. c #01007A",
"I. c #020183",
"U. c #010083",
"Y. c #000089",
"T. c #01008B",
"R. c #010091",
/* pixels */
"i.q.) ) ) J ) q.i D =.{ z i q.{ z z z i = - I.Y.J.F.{ S.F.) J z =.{ D z z D { J z q.=.z i i i i i i J q.D z d @ X = +.q.) S.m.g.",
"{ { =.{ =.i.q.{ z D ) J J ) ) D s i i i O - m.S.S.z.{ =.q.J J D ) ) z z z D J D i J D z z i i i i i z J z 4 : @ X = a.m.i.m.g.{ ",
"z ) g.=.q.J.g.) J D D z J { i 6 6 s i s O * _ =.=.{ J i s z z z z i d s p p s 6 6 7 6 d d d 6 6 6 6 s s s % . . X = x.J.m.m.q.D ",
"z ) F.i.=.m.i.{ J ) { J J J s 6 6 s i 6 O O - > > > - & & & % % % & - - - & & * * - - - - - - * * - % % % . . . X = x.m.{ m.g.{ ",
") q.S.m.g.q.) J J J J J D z s 6 6 6 6 6 O = 5 7 7 7 7 5 < < < 7 7 7 < < < < < < < > > > < & o o 5 7 5 4 , , , , % O ,.i.J i.q.) ",
"=.i.q.S.S.J s s J z s J D z i s 6 6 6 6 O ; q.g.i.q.q.=.{ =.{ i.g.i.{ D J { D D D i i z J < o o q.i.q.q.D z D D 5 O n { ) ) D z ",
"=.i.i.z.z.D s s D D z J D i i s 6 6 6 6 O ; q.g.i.{ J D ) m.q.J J ) { ) { { D D D 6 s D D < o O q.q.{ { J D D D < O n { ) J D z ",
"{ =.i.m.m.J z s D z i D z i i s 6 6 6 6 O * { =.=.{ J D J g.q.) J ) { ) =.=.z i i 6 s D D < o O i.i.{ ) J i i i < O n ) D J D i ",
"{ ) i.m.m.) D D z s 6 z i z i s 6 i i s = ; ) ) { =.=.) J =.=.q.{ { ) J =.=.z s 6 i z D D < o O g.g.=.) ) s 6 s < O p J i ) z 6 ",
"J J =.=.=.J ) { s i z z z z i s 6 i i s = ; =.q.=.q.i.J D g.) i =.) D z ) { s s i i z D z < o o F.{ ) J J i i i < O d D z ) z 6 ",
"=.=.i.q.=.{ ) J i s s z s 6 i i s 6 6 6 O ; =.i.i.q.J ) ) J z i J ) J D D i 6 s i 6 6 s i < O O Y.) z s D i i i < O d J J D z i ",
"g.i.g.i.=.{ J D z s 6 z 6 6 i i i 6 6 6 = ; { g.i.=.z ) { i i i D ) { D z 6 6 6 i 6 6 6 s < o O U.) i 6 z z i i < O p ) ) z z z ",
"z z z ) ) s 6 6 i 6 6 s 6 6 6 6 i 6 6 s = ; ) ) =.i.J z D =.{ ) q.=.) z ) { z i i s s i s < o O { z s 6 s 6 6 6 > O d D z 6 6 6 ",
"z i i D D i i s 6 6 6 6 6 4 4 6 6 6 , @ o * ) { q.g.J z D =.{ ) =.=.J z J { D z i i i i s < o O J z i s 6 s i 6 > = 7 i i s 6 6 ",
"7 4 4 4 4 4 4 4 , , , , , , , 4 4 , > o o * ) { =.i.J D D z z z ) J D z D J z z i i s 6 i < o O J z z i 6 i i 4 > O < 4 4 4 4 , ",
"o o o o o o o o o o o o o o o o o o o o o * D J =.q.J D D z i i J J z D D D z z s 6 s z z < o O J z z i 6 s i 4 % o o o o O O   ",
"o o o o o o o o o o o o o o o o o o o o o * ) q.q.) D D D ) z i J J J D z i i z z s s s i < o O J z s 6 s 6 6 6 > o 7 6 7 4 > X ",
"; ; ; ; * * * * ; - - & O o = ; ; & - = o * { g.q.J D z D { D i J J J J z 6 s i z s s 6 s < o o J D 6 6 s 6 6 6 > O n { ) D 4 O ",
"{ { =.{ ) ) ) { ) J ) { < O p ) { q.) i = * ) ) ) { s 6 s J z i z D ) J i 6 i s 6 6 6 i 6 > O O J D 6 6 6 6 6 6 > O Z { J D 4 O ",
"i.q.{ ) ) { ) J ) { =.) < O n { ) =.) i = * J ) ) { s 6 6 D z i i D ) J i 6 i s 6 6 6 z s > O O D i s s 6 6 6 6 > O _ { D i 4 O ",
"S.z.J D J { J i D =.g.J > O n { J D z i = * Z J J J s 6 6 z z i i D J z z z i i i 6 6 i s < o O z 6 s i s i s 4 > O _ ) i 6 , O ",
"z.S.z.g.g.=.=.{ s i D D < O Z =.=.q.) i = o = 7 J J i i 6 z z z i s s i z s 6 6 6 s s 6 4 > o O i i i i i s 4 O O O d z 6 6 , O ",
"z.m.z.i.i.m.i.) s i J J < O n { { ) D i = o O < p p 6 6 7 6 6 6 6 7 4 6 6 7 4 4 4 6 7 4 , % O O 7 7 7 7 7 7 , O o O 7 6 4 4 > o ",
"z.m.m.q.q.I.g.D i z D J < O n ) J z z i = o o O = = = = = = = = = = = = = = = = = = = = O O o o = O O O = = O o o o = = = = = o ",
"=.q.S.z.=.{ J z i z z z < O _ q.) i i i = o O 5 n p d p p d d p d d d 6 d p d d p 6 6 p 6 4 , , > o o o ,.a.,.p p p p d 6 7 < o ",
"{ =.S.S.i.D i z i i i z < O +.g.{ i i i = o = n i.q.=.q.=.{ =.q.=.=.q.=.{ { =.{ =.) ) { J z i z 7 o o o F.Y.I.g.i.i.=.{ { ) 7 o ",
"g.g.g.S.z.z s i 6 6 6 z < O +.g.) i s 6 = o = Z g.q.) J D D q.z.) { q.J z D J J ) =.) i i z i 6 4 O o o T.J.m.F.i.{ J D D D 5 O ",
"i.i.g.q.) D z i 6 6 i z < O +.g.) s 6 4 O o = _ S.i.z.g.q.J q.m.q.q.q.g.=.) q.{ D i.=.D s s 6 i 7 o o O m.m.z.i.=.) D i s z 5 O ",
"q.q.i.{ D D z i 6 6 s i > o n =.J 6 6 4 O o = +.F.i.S.S.z.) q.z.q.q.i.F.i.{ i.{ z q.{ D s 6 6 i 7 o o o i.z.g.{ { ) D i s z 5 O ",
"i.i.J J D s i D 6 6 6 6 % o o o O O O o o o = _ m.g.) i.g.=.{ { { g.R.R.F.q.D z z { J 6 s 6 6 s 7 o o o i.q.) =.{ ) D z z z 5 O ",
"g.=.) D i 6 s s 6 6 6 6 % o o * n 7 5 < < % = n i.=.{ =.=.J i.z.q.i.S.S.g.) D J { J J i i i s 6 4 o o o z.m.g.q.=.) D i s s 4 O ",
"g.{ =.D s s 6 6 6 6 6 6 % o o 3 Y.g.i.q.D 5 = d =.{ q.) D s z.I.i.=.q.q.{ J D { g.D D z z z i 6 , o o o m.U.I.i.=.) D s 6 6 , O ",
"{ { D D J J z s 6 s i 6 % o o < F.U.S.) z 5 O n m.m.=.=.{ s q.F.) ) ) D z z s D ) =.{ D i i i D 6 o o o g.Y.U.q.J i { { J 6 , O ",
"{ { D z D D z i 6 s s 6 > o o < F.F.i.J i 4 O d z.z.{ { { J { q.J J ) i i i i J ) { ) i i s s z 6 o o o i.S.m.=.D i ) ) J i , o ",
") ) D z z z z z 6 6 6 6 % o o < S.=.J D s , O d g.g.) J J { J D D J J i s s D J ) J z s i s 6 6 4 o o o g.g.q.{ ) J J D z z 5 o ",
"q.) D z i i D ) z i i i > o o > =.z z D i 4 = M z.q.) { { { J z D z s ) J z z i s z z z i s 6 4 , o o o g.J.S.{ ) { g.{ z z 5 o ",
"q.) z z i i i z z i s i > o o 2 { z z z i , = Z g.q.J J ) { J z z z i J J z z i s z z z i 6 6 6 , o o o i.m.z.) ) ) q.) z z 5 O ",
"{ J i s 6 6 6 6 s 6 6 6 % o o 2 { D z 6 6 , = n g.g.{ i i =.J z i z J z z z z z z z z z 6 6 s s 4 o o o { q.=.) J J D D z z 4 O ",
") ) z i 6 6 s i 6 6 6 6 % o o > =.) ) ) 6 , = Z g.=.i i z D i s 6 i D J i s s s s s i D i s 6 i 7 o o o { F.F.i.{ J J D z z 4 O ",
"D J J z s s s i 6 s s 6 % o o > =.{ { { 6 : = n q.) s s s s s s s s i J z s 6 6 6 i i i s s 6 z 7 X X X { S.S.i.{ J ) D i z 5 O ",
"D D q.) z D i s z i s 6 % o o % =.=.=.=.s , O 6 ) J z 6 6 6 s z z s 6 D D z 6 6 6 z i 6 6 z D z 4       =.q.=.q.{ J ) D z D 4 O ",
"=.=.=.=.) s s i 6 6 6 6 > o o % { z i s 6 , O = @ # # = O O O O = = O = = = = O O = = = = = = = O o o o q.g.i.q.) D { D 6 6 ,   ",
"{ q.{ { ) s 6 i 6 6 4 6 > o o > { z i s 6 , O = * * * * * * * * * ; 1 ; ; = * = = * = * = * * = = = o o q.g.i.=.) D { D 6 6 ,   ",
"s i i i i 6 6 4 6 6 , : @ o o % D i z J 6 , = d =.=.{ J D z z z z q.U.z.{ z i i i ) J i d i p i s d * o i.{ J ) D D { ) i i ,   ",
"4 4 4 4 4 , , : > < % @ @ o o % ) i z z s 4 = d =.=.{ ) ) ) J z z i.T.S.=.) J z i ) J s s i i D D z # o i.{ J J J D D z i z 4   ",
"O O o o O O O O O o O O O O o > q.z i i i 5 = d { ) J ) { i.=.J J q.I.S.=.{ ) z 6 i s 6 6 6 s D J z * o i.=.) J J D s s s z 4   ",
"_ _ _ n d n n p p d 6 d 7 7 O % =.D D z i 5 O p i.i.q.{ { i.z.S.m.q.{ ) D z D z i 6 6 s s i i s z i * o i.i.{ s s s i s 6 6 ,   ",
"q.=.i.=.{ q.=.{ ) J J ) D p = % ) z J ) i 4 = p q.q.{ J J i.z.F.F.i.D z z i J J z 6 6 i i i i s s s # o =.i.=.z i s s s 6 6 ,   ",
") ) =.) { g.q.) J D J J D p = % z s J { s , = d =.{ J z D q.g.S.J.g.z z z z q.{ z 6 6 i i i i z i 6 # o ) i.q.) J z 6 6 i 6 , O ",
"{ q.m.{ ) g.q.{ m.=.6 s D z = - z i i s 6 , O d { ) =.) D D ) =.m.S.z.i z z i i z 6 6 6 6 6 i 6 6 s # o _ J D i s s i s 6 6 , O ",
"{ =.i.{ ) g.i.{ g.) s i z d O * 7 5 5 5 , > O d =.=.{ J J ) ) ) i.g.g.z i i i s s 6 6 6 6 6 i s s s # o ) J D i i i i s s 6 , X ",
"{ J ) ) =.g.i.=.) J z D i 7 O o o o o o o o O d i.z.J J ) =.) z ) =.i.) i 6 i s 6 i s 6 6 6 i z D i # o J J D i z z i s s s , + ",
"g.g.) ) q.F.g.{ D z z z i 6 O ; 6 7 7 7 7 < O 7 { { ) J D D =.z.) =.i.q.) z D D D J z s i i 6 6 6 4 = o - - - * - - * @ * * = O ",
"q.q.) J { g.i.{ z i s i s 4 O > =.{ ) { J 7 = 7 { { g.{ ) q.i.g.) J ) ) J z ) J z z z z z i 6 6 6 4 @ . 7 7 7 7 7 5 5 5 5 5 < > ",
"J J J D J J { q.z s 6 s s 4 O > i.{ ) ) D 7 = d =.=.I.g.q.F.i.J J z s z z z =.D s 6 s z D i 6 6 6 4 $   i.g.g.i.q.=.=.=.{ =.) i ",
"D z J D ) g.z.m.J z 6 i i 6 O > g.{ ) D z 5 = d g.J.T.m.q.q.{ D J D i z i z =.D i i s 6 s s i 6 6 6 $   g.m.m.q.q.i.i.{ J i i z ",
"J J ) J { S.S.m.{ z 6 z z s = > i.{ J z z 4 = d z.J.U.z.i.=.) D D D z z i i { J z i s 6 6 s z s 6 s $   m.S.z.q.i.g.i.) z s i J ",
"i.z.z.z.i.z s s q.) z D J z = 1 i.D z i 6 , = M i.D D =.q.g.) i z z z z s 6 z z z 6 6 6 s s 6 6 6 4 $   m.q.) ) i.g.=.z 6 { =.q.",
"{ { ) ) { =.D s D D z i i s O 2 i.q.{ z 6 , = d q.) J ) { { z 6 i z z z s 6 i i 6 6 6 i i s 6 6 6 6 $   q.=.{ { =.q.z.{ i J J D ",
"{ J i z J =.J s i z D s 6 6 O 2 i.i.{ z 6 , O d q.=.J J J J i 6 i z i i s 6 i s 6 6 s z i s 6 6 6 6 $   =.q.=.{ =.q.g.=.J J D i ",
"q.) i z D D i 6 z D { D 6 4 O 1 z.z z i s , O d q.=.D J J D z z z z z z i s 6 s i i i z 6 6 6 i i s $   i.z.z.{ i.S.{ =.g.) D i ",
"{ ) J D J ) D i s i D i 6 , O > i.D i 6 s 4 O d i.g.J D D { J D z z z z z i 6 s z s 6 6 6 6 6 i z s @ . =.q.q.J { q.J ) =.J D i ",
"J { { J J =.J z 6 s i 6 6 , O 2 =.z i 6 s , = d i.z.) z D =.J z z i z z z i 6 s z 6 6 6 6 6 6 i z 4 = o ) { ) D D J z D D D D i ",
"J ) { D z g.{ z i i z z 6 , O > { 6 s i i 5 = 7 ) J z z z s i i 6 6 6 i i i i i i 6 6 6 6 6 6 i z 4 = o ) { ) J J J { { ) z z z "
};
