/* XPM */
static const char *brick[] = {
/* columns rows colors chars-per-pixel */
"64 64 56 1 ",
"  c #794C35",
". c #7A553B",
"X c #714931",
"o c #7B5A44",
"O c #675446",
"+ c #7E6651",
"@ c #88573A",
"# c #965A3B",
"$ c #85522E",
"% c #A45B3B",
"& c #B25D3D",
"* c #99623D",
"= c #8C603E",
"- c #A7633D",
"; c #B7663E",
": c #895D44",
"> c #965D42",
", c #A65E42",
"< c #8B6348",
"1 c #996748",
"2 c #9C704E",
"3 c #8C6C54",
"4 c #9A6D51",
"5 c #9C7355",
"6 c #8A7257",
"7 c #A66A49",
"8 c #B46B49",
"9 c #AA724D",
"0 c #B6734D",
"q c #A76E51",
"w c #B46E51",
"e c #A97656",
"r c #B67A57",
"t c #AA7E61",
"y c #B57E60",
"u c #C5774D",
"i c #C47B55",
"p c #CD754E",
"a c #CC7F62",
"s c #ED7E4E",
"d c #AC805E",
"f c #B9825D",
"g c #AC8363",
"h c #B88665",
"j c #BB9373",
"k c #B68E70",
"l c #C6835B",
"z c #D58659",
"x c #C68A65",
"c c #D48A63",
"v c #C7916B",
"b c #C69776",
"n c #D4936D",
"m c #E29163",
"M c #E98B5A",
"N c #D1A680",
/* pixels */
",er77q217<e88wqeh791en97217ghwxk9f7787wr8re#eq15erhwfhhheerh1947",
"15eq4gd5e2rr9qeee899rxr71111hlxh2e1rrr9eqgh9r9qrprg88riurlwere51",
"wr5#<e71t90gewr77r:@h12h70rwwfrle:4e<g:.57#r99rzMx91hilnzmr :h77",
"rfr77r97r97r7r71@1hqqrrlflrq19hge1qrgge9reherqeee299xrqewqq14rxr",
"wlflffrrrrr9ef0qo@nx0ixlxxir90f5q49rh#>299h7weq9r17xv722211eq1r1",
"ewexrrrrhk2rfrxl0r19xrre54xclvrrh7951qf7r+O6w7hrwx1q5X e77f1:rl9",
"e9elu9e9eq#frw099r11r91291elr91re7rr9rxefr9r0eeq2e5rw#>r9-f11rrr",
":717q777-7r0770fhrr29xe#0@ 1e,>>8rcu0uuhzsMsz5<@@ 4xuaccnfu00ur1",
"rrretgeerrehxxk41hlxtffhqerqehqee7egrerrr<4498lx0rlvNh7erwqhyxxr",
"lrfq1e%qe799rf9 @xlre19hwir79g79rqer7ehye636flvxwhf11e<1r91kxerr",
"<vczzzzhwq79ewwwwwr7,w71rflrrrh<7q<@9e11<7fw7117d977#7h71091g0w@",
"5kirrr9ehg5ehheqeeeerhq4e9reehr7977eqehr9rrrr9rdr29e9qrr97w7erh1",
"w73o.51@4#1r88e9<e>:ew9e.:e89f0wjerg>#e#1hw7hi0r#1h9eeqerqeq>dew",
"r8iewrwrz0199dq>7llx1977xxrre7rxr9rizrrvr7779rrirrrrlzlqrrq179q7",
"l8ir0r9fzl9qrh999ilvrwrelrweq7eu8000frrh5qrr0rrrherhr8#7ihq1qq9q",
"kll1:4zlv>1h77fc0h@1d#:e9<f874@:hulh>q177hrrj89ew7emzf7fv9rgivhr",
"erf5114hg9eeq#eh9hrwrefrq9rfrle4rw9r9e511eq15eeq9:1h74geqrw9755e",
"095e91o11re2eq1777ee14e12ru0izc7711#er1w08qo::oX<3.5<@4w7rw7r1@9",
"weguifwqlpi7pee9wr75ipze71q4441qd2eewre90fmmfllxmmlz0rflxerhq71g",
"r9e9hr#1l0rglfe7qeqqlzcgq1geeq92geegwxrw0vzuxl0xuuf0%rx1ee1q11*e",
"7974f9fr751>e11g42e99er1ellleeeqq1<>qq15o4O.1<e1.5t:.:4099e97err",
"ui4:erwqfnr7qqerq9luq1771er070lirrr1@1eeee:121ef7ejelr17e14einbz",
"rrt11e77xzlhqff77rzzh11fw1hrrllfxpz3.<979e7151>fl#9iir71rq7qliev",
"1491g21qq<:1rq7117r7w99weqeqq14hlzmzvrririrrr991q787*-fnizi14q7r",
"rw7fvqrrr9q9r114eqfr9qerr9945e5efrrcx9wrrrlxxxrrrxvhvxfhrqre1rrr",
"i8fr1fczc70l97rr9r99e<<e9ix9rq::t>:rrrh99h07hMMnpif97r8wh00xw7rl",
"7qe717d5e54de:9111q94:11er2qw7#1eqeehe1h2<2e9951<14<g112rre41qek",
"1te717e24ege24q441ee1q9ree1<4qrx11eqe9>e<o11171:<<@<e:::17g<<<ee",
"7w5::e79r,7r08czlf0lczzx11997e11d11xlul115::5cixnpc5<2refrirf0rr",
"89kvhhrreregrefferreffre5erflq19he1qqccicv1oehrhxrrw1qr7he77rhc0",
"0hf0w;x7#8e77771::::11:.<0wriwrx89971riizzi<.@<79e>81e>1qg14137-",
"rrfq77crrl0eq9frre9rrrrrrxr1wrq15rrte1e91gvq9w>qv09xmzlzzh80v08e",
"77e72elrh01grwgr9hlihwwfr0g1qk79jrwh99gr7txhh91efre5r9erwtrrthkh",
"7787hww977q8wh8999rr77977q77772rppizpx0r0r8h91:172777>7g7#@87e#7",
"hgr7rrrr2eqw1gfwr99eq9qeefrhgee9h9qe97qqqe9rrrqhe1v5qerhhg<gke7r",
"r09*#f77r99hq7twqg11hu0liuhr9f9*eq>t1#e@$39%7r7rh7roX<r%0h12f89x",
"eeqqqerryrrrrf00rreqeeqw7qrrwr9ereeqkg14eee5ixhrwvxurxlheq79qrrq",
"7erhr9ee0w008e9999qr7171ee*9qqg1 >97q11ef71dr%9h%ee79w7r1>77#qr1",
"414f2e35eo.52$gyqgr0flrrqqr8whw817wvl0hllh8757%e##27#q9%qr0r3>e7",
"r97w80r411@2er9r999er00r0ee11717frqrw0r0hhqwyrrhrrhkyhhrfr0hrrrr",
"qhrrtw7geedqeh-79-9k0erile4<<15r7egq1f7u0qqee7gw997gyrgher9k91#7",
"7rfrfh8rl00h7weuit>eh0etwrrw8kbhqirell93:5frfllherk2#1r0rq80eee1",
"rhg9rrw9d99gqeh9rtqeeeggryr7rgggrrqevhk52qr9ru;w>-9r#qr7eh8rr9re",
"r90f--779e7w,r0117rr,7777e#1g7w7%78-7e8rr0rgetgqrk07ww7hweghxhui",
"9r9ererherrewkfre179r9ew8frrhrf99eeeeereqe719vhrqeqerrrgq5hie5ee",
"%erqhw7hr0rrrhxufvfhe7eh0ee12r8rr7qvpzh1>:rrhr8ee92e9wf0rh88e1e7",
"kq1<oo3e912ede17715h9rrrf5rfrlf<:::..free#rr1@@er9rq7whuug97eer9",
"he1955er9917$@q1eqqe9r99werrhqr4 er45eerfhrre12hfrhhrrjhweegeerr",
"8rr8rfrhr8we#er8ee7ee#qq%7w&er-0vprh88h7>4*#g2er77e0i5o<r80g@11r",
"hrj00irrrrrqrh00w8rbrefefe99r9qee7rx81w97wwrrq9rq1wq1w>10020-9rf",
"99j0flxg999rqq#wrwtkr79rhqqeqrkewqr8rk7qq7ehw1192r7#799riirfxref",
"1777te11r99e9ee8qh71e7<e89gq9r9ejhrrllf17ffrrg88je7hrrg91gw15><q",
"9rrr41qqerrhehhrre92terrrrqwre1grw1qererghr10vgwhe*errxr1e7rfrhh",
"7hlj@.5%#rr8h9*ew,eq>408rq%rh#7977h1<5#rbw1e0-gw8977xu0r1#ex8rlu",
"jxe77rir999rwrhhq1llhlrh27eeq<rxx1q<wu9+gdww70irheeryrri0hrr2$#*",
"h01#exihhqqr>9r77e71x07geer7wkh9re74g0ve99rwef71tr1977r#1rw9q9ff",
"2@1qq1g>>41::guiuu9e87<18hww08wq8800rxzcap0ewe4.<h9qq1.5e33336q7",
"eqrhghcrrfrefhq1=<0r1irhxq12rr7907w917# X 9w19wrcl7rrrqkrerr99e1",
"gq987lpirweh77q<5hher1#e>@efee90hvwee9k1@2w7bb%ei%9h8rr,0hrr0897",
"h9711h:O<g11tiuhb8hr8eql00zf@$1t15q1eebiixh0zl1$@9r01erere@$<riw",
"jrrt4f4<:71ew071hr91qgrxrfr9h2<@@ee59rf#11<qrrrhvbe11er11279xhqh",
"#qhwhpuxi&rr;rg;847120vt%7hix<$@rclt>71$#1#*r1:q7712q2u0qlrfr7e7",
"72grlhnxh9rllxh0eqqeehjhrrhvrhbhkeqr91rhjjkvr147999w55gr4r7qe<2e",
"q>4g7gcih9rrlf9qr9h7#@<188rhwrt#7rw0wqu7eddgqqe9gf88h%77#29%wr1<"
};
