/* XPM */
static const char *brick_final[] = {
/* columns rows colors chars-per-pixel */
"64 64 239 2 ",
"   c #5C3E28",
".  c #5D4131",
"X  c #664427",
"o  c #77472A",
"O  c #6A4835",
"+  c #744B34",
"@  c #7A4B32",
"#  c #784B37",
"$  c #7C5235",
"%  c #7C543B",
"&  c #7B583B",
"*  c #7B502E",
"=  c #5D4F42",
"-  c #7D5C41",
";  c #745D48",
":  c #6A5748",
">  c #7D634C",
",  c #864D28",
"<  c #8B532C",
"1  c #84522D",
"2  c #93532C",
"3  c #864D35",
"4  c #835335",
"5  c #8B5334",
"6  c #84553B",
"7  c #8A543B",
"8  c #845A3D",
"9  c #8C5A3D",
"0  c #895935",
"q  c #925434",
"w  c #9C5533",
"e  c #9B5A35",
"r  c #94553B",
"t  c #9B5539",
"y  c #945C3C",
"u  c #9A5B3C",
"i  c #935B36",
"p  c #9A4E2D",
"a  c #A35C3C",
"s  c #AB5D3D",
"d  c #A55637",
"f  c #B15C3D",
"g  c #B85F39",
"h  c #A2492E",
"j  c #9A623E",
"k  c #93603E",
"l  c #8C613D",
"z  c #A3623D",
"x  c #AB613D",
"c  c #A66036",
"v  c #B6643D",
"b  c #CD693C",
"n  c #845D43",
"m  c #8C5D42",
"M  c #885640",
"N  c #945D43",
"B  c #9B5D42",
"V  c #915D49",
"C  c #A35E42",
"Z  c #AD5D41",
"A  c #A45F49",
"S  c #B35D43",
"D  c #8C6245",
"F  c #85654B",
"G  c #8C6449",
"H  c #8C694C",
"J  c #836349",
"K  c #946344",
"L  c #9B6345",
"P  c #946947",
"I  c #9C6946",
"U  c #946549",
"Y  c #9C6549",
"T  c #946A4B",
"R  c #9C6B4C",
"E  c #9D704D",
"W  c #896C55",
"Q  c #956D52",
"!  c #9C6E51",
"~  c #986A55",
"^  c #957255",
"/  c #9C7254",
"(  c #9D7659",
")  c #9D7A5B",
"_  c #93765A",
"`  c #A46444",
"'  c #AB6444",
"]  c #A36A45",
"[  c #AC6A44",
"{  c #A36549",
"}  c #AC6649",
"|  c #A36C4C",
" . c #AB6B4C",
".. c #B26444",
"X. c #BB6644",
"o. c #B36B44",
"O. c #BB6B44",
"+. c #B4664A",
"@. c #B36C4B",
"#. c #BB6C4B",
"$. c #BC664A",
"%. c #A4714D",
"&. c #AB714D",
"*. c #B47145",
"=. c #BA7245",
"-. c #B3724D",
";. c #BB734C",
":. c #BA7A4E",
">. c #A36D51",
",. c #AB6E51",
"<. c #A36552",
"1. c #B26E52",
"2. c #BA6E52",
"3. c #B36752",
"4. c #A47353",
"5. c #AB7454",
"6. c #A57856",
"7. c #AC7956",
"8. c #A47559",
"9. c #AB7659",
"0. c #A47B5B",
"q. c #AC7B5B",
"w. c #B37453",
"e. c #BB7452",
"r. c #B37A55",
"t. c #BC7B54",
"y. c #B37559",
"u. c #BC7659",
"i. c #B37C5B",
"p. c #BB7C5A",
"a. c #997C62",
"s. c #A47E61",
"d. c #AB7E61",
"f. c #B67E61",
"g. c #C26C44",
"h. c #C26C4C",
"j. c #C96C44",
"k. c #C57146",
"l. c #CB7346",
"z. c #C4744C",
"x. c #C9744B",
"c. c #C4794E",
"v. c #CB7A4D",
"b. c #D37A4D",
"n. c #D67649",
"m. c #C56E52",
"M. c #C37552",
"N. c #CB7653",
"B. c #C37C55",
"V. c #CC7C52",
"C. c #CA755A",
"Z. c #C37D5B",
"A. c #C97A5C",
"S. c #D57C52",
"D. c #DB7E54",
"F. c #D27956",
"G. c #E47C4D",
"H. c #EC7E4F",
"J. c #E27E51",
"K. c #F27C4B",
"L. c #C87D64",
"P. c #D17C62",
"I. c #AD815E",
"U. c #AB815A",
"Y. c #B3815E",
"T. c #BB825D",
"R. c #B8835A",
"E. c #9F8165",
"W. c #A58263",
"Q. c #AC8363",
"!. c #AD8A6A",
"~. c #A6856A",
"^. c #B48463",
"/. c #BB8562",
"(. c #B58966",
"). c #BB8A66",
"_. c #B38769",
"`. c #B48B6B",
"'. c #BB8C6B",
"]. c #B9876A",
"[. c #BD916D",
"{. c #B6906E",
"}. c #AB8E72",
"|. c #B48E71",
" X c #BC8E71",
".X c #B49173",
"XX c #BC9372",
"oX c #BA9679",
"OX c #B8987B",
"+X c #AD9071",
"@X c #C38156",
"#X c #CD8256",
"$X c #C3835C",
"%X c #CC845B",
"&X c #CD8A5E",
"*X c #D38255",
"=X c #DB8455",
"-X c #D4855B",
";X c #DB855A",
":X c #D8895D",
">X c #D7804E",
",X c #EB8D5D",
"<X c #E58758",
"1X c #C38562",
"2X c #CB8464",
"3X c #C38B65",
"4X c #CC8B63",
"5X c #C38D6A",
"6X c #CB8D6A",
"7X c #D38C63",
"8X c #D68866",
"9X c #C4926D",
"0X c #CA936D",
"qX c #CD9266",
"wX c #D2916B",
"eX c #D99268",
"rX c #C88F76",
"tX c #C49372",
"yX c #CA9471",
"uX c #C49975",
"iX c #CA9974",
"pX c #C39A7A",
"aX c #CB9C7B",
"sX c #C6977A",
"dX c #D29D79",
"fX c #D79B74",
"gX c #E58F63",
"hX c #E89667",
"jX c #E19B71",
"kX c #D7A37B",
"lX c #CAA27F",
"zX c #B9A085",
"xX c #C79E82",
"cX c #CCA383",
"vX c #C3A182",
"bX c #D1A784",
"nX c #D6B394",
"mX c #E0BE9A",
"MX c #DCBCA1",
/* pixels */
"s v d a pXB.M.B.@Xt.:.[ [ tX} ` ' ' @.@...s _.@.s ' @.e.M.x.D.M.0.x s ' ........a ^.3.S 2.w.&.r.y.w.5.w.S +.' i ' ..Z ` 0.;.D.D.",
"q.r.5.5.xXY.7.r.I &.i.r.3XoXY  .4.4.| 5.p.y.OX5.| w.Y Y e.;.o.R zX5.| | | | ` ` L |.i.1.} L L R %.Y T i.5.9 9 Y R &.| | ^.t.B.B.",
"].|.'.7.q.5._.5.9 T s._.7.6.4.W..X0./ Q..X(.q.0.!.cX'.(.9X/ i.).9X^.[.q.0.Q.Y.tX3X1X/./.6./  .p.B.(.'.9.p.| 6.Z.u.p.^.7.%.R Y !.",
"w 4.r.c e 2  .} ` i 6 5.O.O.O.7.| s ....5.v f -.7.[.B.t.o.-.#X#X=.;.p.w u c ] Z.O.w.w.1.^.pXX.X.X.'.sX5 t L pXy.y.1.8.q.] &.` ~.",
"_.!.`.Y./ 0.OX0.`./.q.'.i.(./.Q.Q.r.6.'.!.8 0..X.X`. .R 0 8.^.I.tX5.!.Q.`._.!.XX^.D 8 5.^.vX_.q.i.'..X8.R 0.Q.0.'.^.[.uX).7.0.`.",
"B.| ` -.0.` | K ~ t.O.#.' ^. .a ' w.`.w.} B ` a C ..f tX0.P G : ~.{ L p.1XxX+.p.u.w.t.b.x.v '. .O.O.O.| 2 e 2 &.7Xb k.j.t.0 o , ",
"B ` ` ,.d.N G N ) w...-.-..X' x z %.pXC y B } w.y.} t  X).] ] I s.B t @.y.xXy.5.5 J Y.z *.z |.^.w.e.e.7.&.7.r.'.9XO.-.t.i.r.&.7.",
"i.T q.3X3XwX'.T.4X@Xr.XX/ 4.%.6.W.q.^.T - / r.yXdX'.G 8.6.G H w.B.o.&.W W zX+X`.5.,.y.Y 8.t.p.r.r.'.i.6.i.) Q.^.^./.( wXp.w.$X5X",
"} n R ;.' k./.%Xx.;.o..X4.j ] 7.Q.C ` ` ^ 9X=.=.l.T.Q L R P ^ v.j.l.p._ & T I E C.h.+.2.^.k.g.g.O.).w.&.| P  .O.h.#./ ;.X.a a w.",
"u ! ).Y - Q `.i.5.T E _.q.q.W.].8.R i.r.'.oX^._.4.^.q.5.5.K ^.~.) I.9XXXi.Y.Y.0.6.(.4.8..X6.4.U G ~.~.].U G 7.| Y P _.q.N / 0.`.",
"D.D.b.l.>.p.#.#.| & n ` f } ).M.h.m.M.e.+.#.e.! ..h.l.k.z.M.M.w.tX;X8X8XN.N.S.z.z.).w.w.r.&.R n O + Q Z.@.} 2.y.@.K & % G ^.Y T ",
"%.P P R W.0.P ` q.W.R / 5.7.^.| K { | | Y | | ( e.x z } @.-.5. ._.@.#.Z.e.e.M.;.} ) 0.{ | 5.r.| | | '.^.R 4.4.d.,.4.H & !.oXG Q ",
"8 8 ! e.$Xr.| 5.A.2Xe.pXfXw.| | ( / (.i.`.6.| &.r.q.5.5.p.,.T L R K 8 + X X   6 r./.p.K T  .7.| ].yX-X1X} 5.).T.i.p.^.r.yXyX5.^.",
"y I 5.h.@.L w.q.x z a 5. .' r { 5.w.t.M.1XB.O.z.=.yXZ.1.1.,.q.*.*.[ 5.l o o o Y f p d ` nX....+.).eXb v d p.5X;.M.;.p.S s f #.u.",
"}..XpX`.XXQ.W.W.n & T !.- 6 6 q.'._./ P n K 5.^.8..XoXXX7.>.Q.Q.0.[.mX0X@X$X4XdXuXQ.tXcXMX'.[ q 0 P j I R '.(.{ 4.I.[.5.| r./.pX",
"aXo.v ;.6X#.o.X.5X6.t.#X%X-X*X-X:X:X9 < q , P / U N N ^.} K | | { r.5X@. .w.1.y.5Xo.O.v.g.%XI , < < < 7.B.h.z.} P r.r.r.r.R.t.r.",
"i.e.t.5.8.` 5.5.oX5.;.&X%Xe.B.$X&.] I.6.5.j '.9.m K D ( D D 5.w.+./.1X@. .e.p.y.6.&.p.;.V.T.Y./.5X0X0XkXr.| m 8 _ ^.r.5.I P R L ",
"1X'.d.5.5.G ^ I.4.&.xX^.q.q.^.~.T.5.9XdX/ X 6 o X %.3X6X1XQ.8.4.6._.Q.* $ 4 8 @ $ / / ^.f./ 8.8.].^.^.^.0./ R ! ! ^ /.5.9 U 0./ ",
"v | L ' +.L 8 v.*.k.aX{ h ' ' >.-X#.e.M.D o 5 1 k /.F.;XN.(.<.A B { P 1 1 < ] I < 5 5 i.>.V V m 7.' }  .u K y.>.y.K x.b.N.z.5.B.",
"4./ D G T 0.Q./.(.[.OX^.9.6.5.'.uX^.'.0.!.'.tX^.9X'.6.4.4.0.4.>./ / Q.(.[.9XtXY.5X9Xp.^.R U T P q.4.P 4.6./ ! G G _ Q.w.p.G ) $X",
"q.(.R 5.5.R { 5.q./ d.r.p.5.5. .).Q.4.5.p.pXq.T 4.6.Q.^.(.R R q.R Y R 4.i.'.Q./ 0.Q.4.4.5.Y / | |  .^. .@.z.z.^.Q.5.d._.r.| 6.R ",
"^.^.R R q.R N 5.(.Y | R 4.Y L L ^.| R | L 6.q.K Y L 6.5.5.5.7.XX6.4.4.R R | 6.K Y R R L | 4.4.q.R 4.^.@.@.} ..^.4.L u 5. .B ` R ",
"` } } 7.XX6.5.^.^.4.q.6./.4.7.4.Q.6.6.6.q.).(.R 7.4.8.} ..-.5.5.5.i./ p.y.^.'.R 7.4./ | q.q.K Y.R 6.Q./ I.R K `.4.R Y 4.q.N | q.",
"} -.r.5.,.7.i.` } @.,.&.;Xt.q.%.#X@.e.T V.A.w.7.q.4.7Xp.7.Y.} } ....6.#XB.,.5.7.q.%.7Xi.5. .5.XX6.| 5.7.q.4.p.(.6.6.4.^.`.R ^.[.",
"Y.7.I.} } } w.} w. .5.0XN.#. .i.S.e.} ).&X;.@... .i.S.Z.-.5.5.5.i.5.[.3Xe.' @... .i.S.e.' r.5.5.5.' @...} ^.@.' @.w.r. .7.r.,.7.",
"@. .w.q.7.Y.Y.I.i.q.q.^.Y.q.Q.iXR.i.6.^.^.q.i.q.I.iXT.4.| r.p.p.5.5. .4.Q.5.i.q.Q.iX@Xi.5.^.} } w.5.i.r.q.uX5. .-. .i.' @. .' @.",
"5.3Xt.5.w. .| ` [ ` ` } } |  .| @.@.` }  .:.w. .,.R Y D H p.K R 7.R 7 $ 8 4.w.| | { 4.6.r.i.7.7.i.r.w.| | ,.5.7.q.6.^.5.q.(.7.q.",
"q./.Y.R | } 5.i.&.5.| ^.w. .e./.r.w.| 5.Y.r.p.r.i.>.P P 0.(.H F a.`./ / P q.w.| | 5.@.{ } @.7.r.&. .e.w.7.y.5.p.-. .y.i.r.,.y.w.",
"B B | wX9X5.8.5.Z.1X4X$X$X'.1Xi.i.E R D R $X].q.r.7.&.R R i.2XaX)./.p.5.w.p.i.8.[.y. .&. .| |  .} | L Y 5. .L $X;.| Y K |  .` } ",
"# O 7 -XdXO.o.O.x.v.S.b.V./.V.z.c.] &.` o.c.q.>.| R m K &.-.#.`.y 5 6 9 N Y @.t.yX' ` &.e.} ` }  .^.R 5 u ` ;.dXB.&.| L P | U P ",
"I.6.Y.5XcX).].XX`.`.'.'..XOX5X9X5X5X).^.).$XQ.8.q.Q.q.6.q.Y.Q.'.| Y q.q.r.i./ / }.Q / y.&.^._.Y.r.^.3X).I.I.iXbXQ.( s./ Q.q.R | ",
"@.c.7.L L } 4X3X:.e.-.>.R | K Q.eX-XV.%X9X#X:.o.).@.' ' } / B L B (.#X[ [ v.a.= = : a.2.s ' ^.p.#...+.^.L y i %.&   X O ( } a Z ",
"` | 5.9 7 u Y.Y K 0 K 4.m P 9 8.eX;X*X@X(.7.R #X'.4.` { R ^.,.4.| Q.^.| P 7.W.F W > E.5.L | 6.^.7.7.'.[.R 4.4.[.( + 8 n I.5.i ' ",
"(.).3Xi.6.q.^./.).Q.! 0.1X4X5.! R q.`.{ L L L Y | } R '.A.2XB.w.M.A.%X1XtX8XD.S.<XD.;XS.^.W.Q./ P K m 9 U {.6Xh...#.2.Z.2X8X/.] ",
"Y.:.t.*.[ y z M.t.q.5 5 x t @ o o 8 ^.s ' ' N N $.O.@.XXb.j.O.#.k.g.j.$.'.J.K.H.G.G.G.J./.F 8 $ 8 4 4 o @ 6.+.$.C.P.C.L.L.P.rX-.",
"q.q.^.^.(.`.W.].XXpXr./.q./ Q ( 0.0.oX7.^.^.T / (.5.q._.^.(.q.p.Y.r.w.r.'.@Xr.w.p.$Xp.-.q.R 4.Q.^.Y.q.(.).dXbXpXaX5X/.^.5XuXtX[.",
"@ _.eX:X-X7X^.-.w.@./.'.,.w.Z.5X .} a ] XXw.-.-.Y.B B t Y '.,.T.%./ Z.u.C.i.; ; > ; H [ =.c.=XfXz.#.s @.$X[ /.dXkX5.9 K j 7.z w ",
"@ W.4Xc.V.;.0.P L ] Y.(.w.w.@.^.| C ` y._.L | R I.Q.q.4.q.^.| ] %.(.u.L./.i.) W F > ) 3X4X4XqXuXw. .5.^.XXP K 1 R ^.m G K W.q.| ",
",.e.e./.Q.| Y 5.,.>.6.4.9.[.3X6X$Xt.@X$Xp.T.!.~ 6.q.q.! | | -.r.5.8.Q.0.Q H 6.Y.9X].i.i.0.8.0.q.f.tX).T.Y.7.4.m U q.`.).4.q.).5X",
"@.+.#.2.8.Z f ' +.+.y u } &.;.;.:.-.-.*.;.t.0.7 V N } K 7 # 3 r.@Xy y 9 9 y q w r.$.s d 7 y a t q 8.` e e t a C ` u 7.;.w q q e ",
"^.0.Q.Q.Q.0.`.'.[.^.G ) !._.^._.'.I.Q.^.[.^.Q.I | 5. .| | I.0.6.Q.`.uX[.).Y.9X^.`.].(.`.0.8.0.!.!.XX0.0.0.9.Q.6.6.4.Q.).Y./.&.6.",
"& W.{ N 7 U ( w.w.{ Y.R @ 7 7 T #.....} ^.N.1.$.3X^.@.w.e.(.5.r r B ^.y u q q.1Xe.e. ..XN.M.M.p.u.@.B { i.:.i.:.T.,. .,.8.^.@.u.",
"% ) q.Y V U / r.w.L 0.0.8 m n ) r. .} 8._.:.w.` .X.X5.i.p.!.7.L B N I.L L | 7.^.,. .Y !.w.w.;.7.4.9 9 T '.r.Y P 0.0.9.4.6.`.| ,.",
"| $X3X3XyX3X4.6.w.] R r.T.0X/./.p.f.^.7.4.5._.3X3X^.^.q./.1X%X4X].p.q.3XXXT.r.T.4.5.q.i.R.).).Z.$Xp.p.p.1Xp.i.0XeX%X$X5.R T.$XT.",
"u x.n.n.eXS.d q o.c.z e x.eXC.$.@.1. .B C ' i.,Xk.a ' ' o.k.O.-X1X$.8XjXR.` 5 w s s a s g g.p.h.h.C.P.M.X.X.} $Xv b.S.;.` c.' O.",
"Y.@X6XT.[.[.0X/.r.i./.5Xp.(.0.0.q.6.q.6.8.T 0.-.-.r.$X).Y.T.p.Y.{.7.).5.I.) W.`.).'.(.).).^.~.W..X`.Q./ Q.).).9Xw.5.y y | i.0X9X",
"[ t.^.4 7 N ^.N 7 r y i.e.| 8 0.c.z ' L | N V 3 / 3Xl.c.*XaXR N | I 6 ' } C 7.1Xw.t.Z.uX .@.` ] 7.' } r R #X<X-X%XY.i i ] 9XT.[ ",
"w.0X'.y I k ^.%.K P R q.| Y 9 Q./.t.| | 0.n m 8 ~.9Xk.[ o.0X4.K ] q.0.` @.B ! ).} o.@.[.| ;.w.r./.m.h.} 0.@XhX-Xt.I.9XiX0XpX(.&.",
"7.i./.Y.).y.f.i././.5Xi.6.^.5.6.Y./.T.$XwX7XR.~ >.q.i.5.5.i. .`.^.| T G P R 6.6./ / P / Q !.0.4.R | ^ - G Q OX4.n U 4./ Y | } 3X",
"L L } | 5.C C L ! >.,.{ r 5.-.k.g.O.v.S.S.<X%X` Z C B C r t w q.e.s u } #.#.$.X.` n # 7 8 % + # @ # - + @ o Q m + 7 9 U t a s w.",
"r.i.5.6.Q.) 4.] / i.6.^ ^ ^.r.T.).Q.6.^.q.^.Q./ i.5.! 6.5.| | (.[.5.6.7.T.T.| 5.).s.H Q Q / Q Q F Q cXXX0.W.cX]./ R T iX5X).I._.",
"@.Y. .`  .>.t.<X<XG.$Xq.` ,.B Y 5.Y { >.T R { Y `.q.L 7.5.!.w.,.w.i.^.| ;.#.T.wXjXhXhX$X&X7X$XgXfX,XhX:X-X&Xb.;.` T.$X-.p.@X/.| ",
"} 6.5.` L H &X<X>X<XfX( Y N 7 ( R N B R P L L B Q.8.Y 5.Y '.1.@.Z.1Xq.` z.h.0X&X=X,XD.4XeXc.-.*XwXD.n.n.S.1Xk.g.x T.iX .Y &.).| ",
"Y 0.0.Q.Q.^./.Y.9XyXq.Q.tXq.U.uX9X9XY.Q.q.'.Q.8.Q.`.Q.d.I.W.q.[.9X(.).'._.! `.'.q./ 8 Q.`.q./ 6./ U 9 | Q.Q.! m m ! '.^.5.4.i.6.",
"Y R L 4. .' }  .4.e.} C C i.#XB.@X@Xr.w.5.5.w.` L L L 6 9 7 5 | | y y L F O B U O . N N 7 9 8.` 5 3 3 / ( 7 7 6 % M 7 U O...' L ",
"4.q.4.I.w.{ R P P 5.| Y D 0.3XT.r.5.%.P I 4.].p.6.0.! Q / T N P P 4.0.0.0.G / / J n ! / T U |.aXi.q./ XXnXQ.! 5.7.0.Q 0.q.i.q.%.",
"w.5.5.,X,XD.^.4.| K 5.w.@.` Y q.2XC.m.2.-X;X-XS.w.%X#X:X%X/ D n m / i.r.T.p.[.7.` Y R q.Y { N | p. .N B q.%.@X8XgX^.` a u U W.9 ",
"} 5.).n.b.S.9XR Y 7 i.p.} [ L q.p. .5.,.@X#Xe.;.5XS.n.n.b.( O % 4 U R u ` ' P / L a y ! m 9 y L 3X4X+.a 7.5X8X2X1X).e.L B 4.^.Y ",
"/ ! q.q.r.7.(.6.P R i.).`.Q.| [.`.).5XI.6.q.Q.`.XX/.$X7X4X5Xr.^.q.r.5Xr.7.&.^.yXq.q.7.'.i.^.^.^.Q.|.`.9 y I y 0 0 j i ).wX$X1X7X",
"Y C B Y.' ` @.@. .,.` ..L 6.B L L u u j y r 9 #XV.V.;X,XgX,X<XkX1Xo.e.C.F.F.M.g.e.T.l.O...z u u q q R o.c.#X;.-.:.;.;.kXwXM.M.e.",
"q.4.R _.^.i.r.r.r.q.Y.T.q.Y.&.4.6.0./ 6.Q./ 0.-.@X4XT./.p.4XwXXX6.| p.Z.p.p./.3X3XaX5X0XtX].Q.Q.`.^.(.0XyXyX'.iXcXtX).^._.].q.8.",
"w.y.7.w.i.1.T.! U U R /.-.@.l.eX8.U y.>.Q.4./ n W.a.8 J % Q.@X-.&.&.).&. .-.7.).;.-.] Y.hX,X,XhXwX*XD.S.r.U.%.] %.y...+.3.5Xq.| ",
"| | r.@.L } 7.U n 8 G 0.Y ] t.9XT.@.p.5.E 9 8 3 q.0.r C y q.t.:.t.@X[.w.&. .r.[.] } 5.^.;X*X=X&X3XO.;.O./.Y.%.R r.3X;.B.@.).5X@X",
"R 4.7.5.Y.7.6.4.U R i.r.7.[.i.4.0.q.y.w.w.} 6 $ /.'.^.).'.^.XXpX`.0.q.(.oX>.U 8.8.i.].^.4.7.Q.^ ^ Q Q Q / ! T XXY.P Y 4.4.i./.Y."
};
