/* XPM */
static char *east[] = {
"16 16 3 1",
"g c #808080",   /* pared gris */
"W c #F4F4F4",   /* cartel blanco */
"R c #C0392B",   /* franja roja (letras) */
"gggggggggggggggg",
"gggggggggggggggg",
"gggWWWWWWWWWWggg",
"gggWggggggggWggg",
"gggWRRRRggRRWggg",
"gggWggggggggWggg",
"gggWggRRRRggWggg",
"gggWggggggggWggg",
"gggWggggggggWggg",
"gggWRRggggRRWggg",
"gggWggggggggWggg",
"gggWWWWWWWWWWggg",
"gggggggggggggggg",
"gggggggggggggggg",
"gggggggggggggggg",
"gggggggggggggggg"
};
