/* XPM */
static const char *gray_wall[] = {
/* columns rows colors chars-per-pixel */
"64 64 154 2 ",
"   c #363637",
".  c #373639",
"X  c #383739",
"o  c #39383A",
"O  c #444444",
"+  c #484747",
"@  c #484847",
"#  c #474748",
"$  c #484748",
"%  c #4C4C4C",
"&  c #504F4F",
"*  c #50504F",
"=  c #4F4E50",
"-  c #504F51",
";  c #4F5050",
":  c #545454",
">  c #585757",
",  c #575857",
"<  c #595857",
"1  c #565659",
"2  c #585758",
"3  c #575858",
"4  c #5C5C5C",
"5  c #605F5F",
"6  c #60605F",
"7  c #5F5F60",
"8  c #605F60",
"9  c #646363",
"0  c #686767",
"q  c #686867",
"w  c #686768",
"e  c #6C6B6B",
"r  c #706F6F",
"t  c #70706F",
"y  c #706F70",
"u  c #6F7070",
"i  c #747473",
"p  c #787777",
"a  c #787877",
"s  c #777778",
"d  c #787778",
"f  c gray47",
"g  c #797878",
"h  c #797879",
"j  c #797979",
"k  c #7A7A79",
"l  c gray48",
"z  c #7B7B7A",
"x  c #7B7B7B",
"c  c #7B7B7B",
"v  c #7C7B7B",
"b  c #7C7C7B",
"n  c #7B7B7C",
"m  c #7C7C7C",
"M  c gray49",
"N  c #7D7D7D",
"B  c #7E7D7D",
"V  c #7E7E7D",
"C  c #7D7D7E",
"Z  c #7E7E7E",
"A  c #7F7F7F",
"S  c #7C7B7C",
"D  c #807F7F",
"F  c #807F7F",
"G  c #7F807F",
"H  c #80807F",
"J  c #80807F",
"K  c #7F7F80",
"L  c #807F80",
"P  c #7F8080",
"I  c #808080",
"U  c #818181",
"Y  c #808181",
"T  c #828181",
"R  c #818281",
"E  c #828281",
"W  c #818182",
"Q  c #828182",
"!  c #818282",
"~  c gray51",
"^  c #828283",
"/  c #838383",
"(  c #838282",
")  c #848383",
"_  c #848483",
"`  c #838384",
"'  c #848384",
"]  c #848484",
"[  c #848485",
"{  c gray52",
"}  c #858584",
"|  c #868585",
" . c #858586",
".. c #848586",
"X. c #868586",
"o. c #858686",
"O. c #868686",
"+. c #868687",
"@. c #868787",
"#. c gray53",
"$. c #838383",
"%. c #888887",
"&. c #878788",
"*. c #878788",
"=. c #888788",
"-. c #888788",
";. c #878888",
":. c #888888",
">. c #898888",
",. c #888889",
"<. c #898889",
"1. c #888989",
"2. c #898989",
"3. c #8A8989",
"4. c #8A8A89",
"5. c #89898A",
"6. c #8A898A",
"7. c #898A8A",
"8. c #898A8B",
"9. c gray54",
"0. c #8B8A8A",
"q. c #8A8B8A",
"w. c #8B8B8A",
"e. c #8A8A8B",
"r. c #8A8B8B",
"t. c #8B8B8B",
"y. c #8C8B8B",
"u. c #8A8B8C",
"i. c #8B8B8C",
"p. c #8C8B8C",
"a. c #8B8C8C",
"s. c #8B8C8D",
"d. c gray55",
"f. c #8D8C8D",
"g. c #8C8D8D",
"h. c #8D8D8D",
"j. c #8D8D8E",
"k. c #8D8E8E",
"l. c #8E8E8E",
"z. c gray56",
"x. c #8B8B8C",
"c. c #8F8F90",
"v. c #8F8E90",
"b. c #908F91",
"n. c #8F9090",
"m. c #8F9091",
"M. c #909091",
"N. c #919192",
"B. c #919193",
"V. c #939495",
"C. c #949496",
"Z. c #959496",
"A. c #929294",
"S. c #959598",
/* pixels */
"c.5.[ [ ^ ^ ^ ^ ^ 5.&.s s A ) ^ A A [ [ j.M.5.^ A s s ^ [ [ 5.5.i r e e e s c c s a s s s s s i e 9 9 9 i t 9 9 9 9 9 9 9 4 4 9 ",
"n.5.[ [ ^ ^ ^ ^ ^ 5.5.c s A _ ^ A A [ [ d.j.5.^ A s s ^ _ [ 5.5.i i e e e i c c s s s s s s s i e 9 9 9 e e 9 9 9 9 9 9 9 4 4 9 ",
"n.j.i.&.s s A ^ ^ M.M.j.i.^ H [ j.p.s s ^ ^ ^ A ^ [ [ A A c s i s s e e e w w w i i 9 9 i s i w e s s e 9 9 e e 9 9 9 w w 9 9 9 ",
"j.j.s.;.s s A ^ ^ M.M.j.j.[ H [ j.j.s s A ^ ^ A ^ [ [ n c c i i s a e e e w 9 w i i 9 9 i a i w e s s e 9 9 e e 9 9 9 w w 9 9 9 ",
"M.M.M.j.n c A A A ^ ^ [ [ ^ ^ ^ ^ ^ [ ^ ^ ^ ^ A A A A ^ ^ ^ e e e e s c c i w w w w e e e w e e e e e w w w 9 9 4 4 4 9 9 9 9 9 ",
"V.Z.Z.M.A A A n c s c ^ ^ ^ ^ A A A 5.5.^ H ^ A A c n [ 5.[ e e w w c ^ ^ g e w 9 9 i i 9 9 w e e 9 9 w r e 4 4 < < 4 9 9 9 9 9 ",
"M.j.5.5.[ [ ^ ^ ^ ` ^ ^ ^ [ [ [ ^ ^ ^ ^ ^ ^ ^ ^ ^ A A c d s e e 0 0 e e e w 9 9 0 w s s w 9 0 w 9 9 9 0 e w 4 4 4 4 4 5 5 4 4 4 ",
"n.;.^ [ j.j.5.[ %.j.j.[ [ 5.j.5.%.[ A A ^ [ ^ _ ^ ^ D e w w i i 9 9 9 4 4 4 4 9 w w s s e w 0 9 9 9 9 9 w w < < 9 9 6 4 4 < > < ",
"n.;.^ [ j.j.[ [ &.j.j.[ [ 5.j.5.[ [ A A ^ [ ^ ^ ^ ^ A w w w t t 9 9 9 4 4 4 4 9 w w s s e w 0 9 9 9 9 9 w w 4 < 9 9 6 4 4 < > < ",
"i.[ ^ ^ ^ ^ 5.5.5.^ ' 5.5.[ [ 5.j.j.%.[ A c A ^ A s s s s i w q 9 9 w e e 9 9 9 9 9 9 9 e t e w 9 4 4 5 9 9 5 5 9 9 6 9 9 4 4 4 ",
"5.[ ^ ^ ^ ^ 5.5.5.^ ^ 5.5.[ ^ [ j.j.5.5.A c b ^ A s s g c s w q 9 9 e t e 9 9 9 9 9 4 4 e i e w 9 4 4 4 9 9 5 6 5 9 6 9 9 6 9 4 ",
"i.[ ^ [ 5.5.[ [ [ 5.5.i.s.5.[ [ ' ^ c c b A c i s c c e e e e e 9 9 9 9 9 9 9 9 r e 9 9 e i w 4 9 9 9 5 < < 4 4 < : > < < 4 9 9 ",
"s.[ ^ [ j.j.[ ^ ^ 5.5.s.y.5.[ [ H A s s b A c e i A b e w w e e 9 9 9 9 9 9 9 9 i i 9 9 e i q 4 4 0 0 5 : : 4 4 : : : < < 4 9 9 ",
"[ [ [ [ 5.5.[ [ [ 5.5.[ [ ^ ^ ^ ^ A s s s s i t i s i e e e e w 9 9 9 9 9 9 9 0 w w 9 9 9 4 4 5 9 9 9 4 : : 4 4 > : > < < 4 4 4 ",
"c ^ 5.5.^ ^ 5.j.5.[ [ A v c c A ^ ^ s i e e e s i w w e e e 9 9 9 9 4 4 5 w e w 4 5 q q 9 < 6 q 9 4 4 < > > 4 4 4 < < < < < < : ",
"c ^ 5.5.^ ^ 5.p.5.[ [ b c v c A H ^ i i e w e s i w w e t e 9 9 9 9 4 4 6 w e w 4 5 9 w 9 4 9 w 9 4 4 < > > 4 4 4 4 < < < < < : ",
"v ) 5.[ i i y e e i i e e 9 9 9 q 0 q 0 w e w q 9 5 5 4 4 5 9 9 : : < 4 4 < > 2 < < % % $ $ % : & $ $ % : : % % + # + % % % $ % ",
"y s c s 9 9 9 9 9 9 w 9 9 5 < 4 4 4 6 9 9 9 9 6 4 4 4 < < < 4 4 : : , < < : : : : : + $ $ + @ $ $ # # $ : : $ $ O # # $ $ + + $ ",
": : : : : : : : : : : : : : : : : : : : : : : : : : : : : : : : : : : : : : : : : : % % % % # O O + @ @ + + + @ + + # # # # # # ",
"$ % % % % % % % % % % % % % % $ $ $ % % $ $ $ % % % % % % % % % $ $ $ $ $ $ $ $ $ $ # # # # O o o O O O O O O O O O O O O O O O ",
". . . . . . . . . . . . . . . . . . . . . . . . . . . . . . . . . . . . . . . . . . . . . . . . . . . . . . . . . . . . . . . . ",
". . . . . . . . . . . . . . . . . . . . . . . . . . . . . . . . . . . . . . . . . . . . . . . . . . . . . . . . . . . . . . . . ",
". . . . . . . . . . . . . . . . . . . . . . . . . . . . . . . . . . . . . . . . . . . . . . . . . . . . . . . . . .   . . . . . ",
"9 9 9 9 9 9 9 9 9 9 9 9 9 9 9 9 9 9 9 9 9 9 9 9 7 9 9 9 9 4 % % . . . . O : : < 9 9 8 9 8 7 8 7 8 7 7 7 4 4 4 4 4 4 4 4 4 4 4 4 ",
"[ [ [ [ [ [ [ [ ` ` ] ] ] ] ` ` ^ ` ^ ^ ^ ^ ^ ^ ^ ^ ^ ^ ^ A 9 9   . . . $ e e s ^ ^ P ^ ^ ^ ^ P K A A A A A A A A c c c c c c c ",
"&.[ [ [ [ [ ] ^ ^ ^ ^ [ [ ^ ^ ^ ^ ^ ^ ^ ^ ^ ^ ^ ^ A A A A c 9 7   . . . $ r y s [ ^ ^ P A A G ^ A A A A c c c c c c c c g s s s ",
"j.^ s c ' [ A A c s s [ &.^ A s e r c c i i i i s s i e e w < <   . . . % ^ ^ [ M.j.A A s i c [ A e e e e w i i e w e t e 9 9 9 ",
"j.^ s c ^ ^ A A c s s [ [ A A s e e s s i r i i i i i e w w < 3   . . . = ^ ^ [ M.j.A A s i c _ A e e e w w t i w w w e e 9 9 9 ",
"c G _ ^ s s c A A i i A A i i s ^ ^ g g i e e r r e e 9 9 5 3 :   . . . = ^ ^ ^ A L s s A A v p i w w e s s e e 9 9 9 9 9 9 9 9 ",
"c H [ ^ s s c A A i i A A i e c [ [ c p i r e r e e r 9 9 4 : : . . . . = ^ ^ H A A s s A ^ S s i w w e s s r e 9 9 9 9 9 9 9 9 ",
"c A D A c c c c c s s c c i e s D A i i i e e e e t i 9 9 4 : : . . . . % ^ ^ H A A A A c d c c i w w e i i w w 9 9 9 9 9 9 9 9 ",
"A c i s ^ ^ p i i D A g s t e i s s w w e i e 0 w i i 9 9 5 : : . . . . % ^ ^ L A A 5.5.i w i A c w w w w w 9 9 9 9 0 w w 9 9 9 ",
"A p s s A A p i i v c s i i e i i i e w e r e w w t t 9 9 9 : : . . . . = ^ ^ A c v ^ A r w i A c e e e e e 9 9 9 9 9 0 9 9 9 9 ",
"s s s s s s s s i e e w w i s i e e r r w w w e e 0 9 w 0 9 : :   . . . % A A p e i 9 9 w w i D A i i i p s e e 9 9 9 9 9 0 w 9 ",
"s s s s s s s s i e e w w i s i e e e e w 0 w e e 9 9 q 9 9 : : . . . . % D A p e e 9 9 w w i H A i i i c s e e 9 9 9 9 9 9 q 9 ",
"i i i i i i r r t i i i t i i y e e e e e e w w q 0 9 q 9 9 : :   . . . % s s i e e w w w w e s i 0 q w e e q 0 9 5 5 9 9 9 9 9 ",
"i t y i i i e w e g g s s r e e i i w w e t w 9 9 9 9 0 9 9 % %   . . . # e e e i i s s w w w e 0 4 4 4 9 9 9 9 4 < 4 9 9 5 5 4 ",
"i i t t s s e e e s s s i e e e e e w w e e w 9 9 9 9 9 9 4 ; ;   . . . # e e e i i i i e w w w 9 4 4 5 9 9 9 9 4 < 4 9 9 5 6 4 ",
"A s e i A A p i i i i i i w 9 0 w w i t 9 9 q r e 9 6 < < < : :   . . . # e e e i i w w i s w 4 5 w w 9 4 4 9 9 4 4 4 9 9 9 9 5 ",
"D s e i A A p i i i i i i w 0 w w w i i 9 9 q r e 9 6 < < < : :   . . . # e e e i i w w i s 0 4 5 w w 9 4 4 9 9 4 4 4 9 9 5 6 4 ",
"i s p s w w i c g 9 0 r t e e e 9 9 9 9 w e q 9 9 w w < < , % %   . . . $ e e w 9 9 < < 9 9 9 9 9 4 4 9 9 9 4 4 9 9 9 e e 4 < < ",
"i s c s w w i c g 9 9 r i t t e 9 9 9 9 w e w 9 9 w w < < > % %   . . . $ e e w 9 9 < < 9 9 9 9 9 4 4 9 0 9 4 4 9 9 9 e e 4 < < ",
"w w w e i i e e e 9 9 w w q 0 q w w 4 4 9 9 9 9 9 9 9 : : : % %   . . o $ e e w w w 0 9 4 4 4 4 4 4 5 4 5 4 : : < < 4 9 9 4 < < ",
"9 9 9 w s s e 9 9 9 9 0 0 9 9 9 w w 4 4 4 4 9 9 9 4 4 : : : % % . . . o $ e e e e e e w < : 4 4 4 4 4 4 4 < : : : : : 4 4 4 < < ",
"w 0 9 9 0 w 9 9 9 9 9 9 9 4 4 9 9 9 9 9 4 < 4 9 4 < < : : : % % . . . . # w w w 9 9 4 4 < 4 4 4 < : : > < > & - : : , < < < < < ",
"w w 9 9 9 8 9 9 9 9 9 5 5 < < 4 9 9 9 9 < : < 4 4 : : < < < % % . . . . # w w 9 9 5 : : 4 5 4 4 > : : : : > % % : < < < < : : : ",
"9 9 9 9 4 4 9 9 9 9 9 4 4 < < 4 9 9 9 9 < : > 4 < : : : < : % $   . . . # 9 9 9 4 4 : : < < < < : & % : : : % % : : : : : : : : ",
": : : : 2 < 2 2 > : : 2 < < < < < : : : : & * : : % % : : : $ $ . . . . O 4 < < > > : : - % % % % % % % % % % % % % $ $ $ $ % $ ",
": : : : : : : : : % % : : : : : : : % % % % % % % $ $ % % % # # . . . . O < < : : : : : % % % % % $ % % % % $ $ $ $ $ $ $ $ $ # ",
". . . . . . . . . . . o o o o . . . . . . . . . . . . . . . . . . . . . . o o o o o o o o o o o o o o . o o o o o o o o . o o o ",
"  . . . . . . . . . . . . . . . . . . . . . . . . . . . . . . . . . . . . . . . . . . . . . . . . . . . . . . . . . . . . . . . ",
". . . . . . . . . .   . . . . . . . . . . . . . . . . . . . . . . . . . . . . . . . . . . . . . . . . . . . . . . . . . . . . . ",
". . . . . . . . . . . . . . . . . . . . . . . . . . . .   . . . . . . . . . . . . . . . . . . . . . . . . . . .   . . . . . . . ",
": 1 < < 2 1 : : : : : 1 1 1 : 1 1 : = % : - - % = : : : - : : - = = = = - - - - - = % = % = = % % % % % % % % % % % % % % % % % ",
"[ j.S.S.S.S.[ ^ ^ ^ ^ M.A.M.j.c.M.b.S v ^ ^ A s S ` [ ' ^ ^ ^ ^ ^ K K K K K A A A A c c c c c v c c c c c c d d d s s s s s s i ",
"5.j.A.A.A.A.[ ^ ^ ^ ^ c.M.c.j.j.j.i.A A A A A s A [ [ ^ ^ ^ A A A A A A A A A A A c s d s s c c c c c d s s s s s s i i i i i i ",
"V.c.i.5.c c A ^ P L K s s A ^ c i i c c i e r s c ) ' s s i i i i r e e e w w w t t t t e w w 9 w i s w 4 4 9 0 9 9 9 w w 5 4 9 ",
"Z.j.5.=.d s A L A A A i i A ^ c e y c c r w r s c ^ ) s i i i i e e e e e 9 9 w e e e e w w 9 9 9 i i w 4 4 9 0 9 9 9 w w 4 4 5 ",
"[ 5.5.[ c s H [ ^ c c A ^ c s s s s s i r e e i s b A c c s e e s s e e e w w w w w 9 9 q w w 9 9 w w 9 4 4 9 9 w w 9 9 9 4 4 4 ",
"A [ 5.[ c d ^ [ [ s s [ [ p i s x c i i i r e r i c c A A c w w A A r e e w w w 9 9 < < 9 e w 9 9 9 9 8 4 4 9 9 e i w 4 4 4 4 4 ",
"A ' 5.[ c c ^ [ ^ s s ^ [ p i s A A i i r e e e i c g A A p w w c c e e e w w 0 9 9 < < 9 w w 9 9 9 9 9 4 4 9 9 e t w 4 4 4 4 5 ",
"` v s s S c s i s [ [ i i s c A A A i i w 9 9 9 9 9 9 i p s i i 4 4 9 9 9 0 w w e e e w 9 4 9 e e 9 9 9 4 4 4 4 5 4 5 9 9 4 < : ",
"[ A s s S c s i s [ [ i i s c v A v r i w 9 9 9 9 9 9 i p s s i 4 4 9 9 9 w w w e e e w 9 4 9 e w 9 9 9 4 4 4 4 9 9 9 9 9 4 < : ",
"^ c e e e e i i i c c i i i i e e e i r i i e e w 9 9 w e w 9 9 9 9 w w w 9 9 9 9 9 9 9 9 9 9 4 4 4 4 4 4 4 < < < < < > : : : : "
};
