/* XPM */
static const char *gray_wall[] = {
/* columns rows colors chars-per-pixel */
"64 64 61 1 ",
"  c #C0C0C0",
". c #C1C1C1",
"X c #C2C2C2",
"o c #C3C3C3",
"O c #C4C4C4",
"+ c #C5C5C5",
"@ c #C6C6C6",
"# c #C7C7C7",
"$ c #C8C8C8",
"% c #C9C9C9",
"& c #CACACA",
"* c #CBCBCB",
"= c gray80",
"- c #CDCDCD",
"; c #CECECE",
": c #CFCFCF",
"> c #D0D0D0",
", c #D1D1D1",
"< c #D2D2D2",
"1 c #D3D3D3",
"2 c #D4D4D4",
"3 c #D5D5D5",
"4 c gray84",
"5 c #D7D7D7",
"6 c #D8D8D8",
"7 c #D9D9D9",
"8 c #DADADA",
"9 c #DBDBDB",
"0 c #DCDCDC",
"q c #DDDDDD",
"w c #DEDEDE",
"e c #DFDFDF",
"r c #E0E0E0",
"t c #E1E1E1",
"y c #E2E2E2",
"u c #E3E3E3",
"i c #E4E4E4",
"p c #E5E5E5",
"a c #E6E6E6",
"s c #E7E7E7",
"d c #E8E8E8",
"f c #E9E9E9",
"g c #EAEAEA",
"h c #EBEBEB",
"j c #ECECEC",
"k c #EDEDED",
"l c #EEEEEE",
"z c #EFEFEF",
"x c #F0F0F0",
"c c #F1F1F1",
"v c #F2F2F2",
"b c #F3F3F3",
"n c #F4F4F4",
"m c #F5F5F5",
"M c #F6F6F6",
"N c #F7F7F7",
"B c #F8F8F8",
"V c #F9F9F9",
"C c #FAFAFA",
"Z c #FBFBFB",
"A c #FCFCFC",
/* pixels */
"h0titti49hhiih0ht90i40jjhht0hjjhh9tihii0-,,,,+-hjhhh99iiiht9hjhh",
"j4tnjhnt0nncnj0cihjc0jnnnnitBBncc9jnncci,tt09-$hBnnn0iccnch0nncj",
"i99004949t00004t00ii00940t00iitt04999944-44,$$-49994-,4,44,-0tt0",
"ncjjt90tjjjcncnncthcccccccjccj990009900iit,9htjhiiiicjc49cccccjj",
"jccctihhjcjccjjjh9jcjcccccnnnj,-9t090tttt9$-hhch94i0jh0-9jjccjjc",
"0,4900900i00094000iitit00tt0tt0,,-,909,99,$-40990004-44409949040",
"c4thjjihhcjjjj0ncBnBhjBnnncjnnccj4thhhchhjjjjj0cBncj9tjccjitnnjj",
"4-,44994494iii9ihhhhttiihhiijhhtt90tihjt00tt944tiht049iiti940ttt",
"ttiit9iitt-9hihhjhiihhh9thhihhii0hjj0,944444,,94,-ihhhiihit0tt4i",
"cnnnBh0cjh,tnnBnBcjcjcnticnBnncccnBBt4tiiitt0tit4-nABnncjjhcnjtn",
"499494,4494thiitii900009400tiiiitttt0494,-44,,494,9099999000t099",
"h4thitt09ihjji9jcjjc04099,-0jhjji9ihjcctihhii44jcjht4icccncicncj",
"h4ijhhht9tihjh9ccjcnt4t944-9jhjji49ihhh0hch90t4hhht94tjjjjhthjjh",
"99ihi0009900094990ht009,,--9t0909940ttttit99949099949994,,4900tt",
"nnncicBBBBncnnnnj0ccnnnnnccnni9nnctcBBnncji0nncnBnnBBBnttjcnccBn",
"hhht0ihhiiihhhjhi4hhihhittttt,$000-9iiii0t0-iiitt0tt0tt,,ttiiihh",
"t,0itt040it0t4,ittit49t000,-t4-49 909994 $--,$,ttitt-4tt099,itth",
"c9hcjjj9hnnnci0nnccc0tcjcci4hhcnn4ccnnnt,0999-9nBncc9hnnnch0Bncc",
"t90t9009900009,,49944999,4,$,,,,,-,4,,04$,-$$+,44,44,,40944,9949",
"ncjnnnnjjii9jccccccjhih40jjcjciihjjc,ijchhhhhcccc$hccjjjhjjcch9c",
"ccjcccccch04ncnnnncjjhj9tnccccjjjccc9hcjjhhhhjjhi+hjjjcjjcccch,j",
"0,9,499-404-4--$$-,,,944900999999-44,44,009994494,,-+-,449,,9940",
"B0i0hcnt9njtht,4449,$hjihnhtBBnnn,cncnBi0hjcni0BBnjc90jjcch0cnnB",
"0,490ii0404,,4-,4,,$$tt90t09hihit-tt00t9-,0tit4itt$440iihi99tttt",
"ttt0,,0thiiiiihii4iiihiiittiit+,t0ttti09tit9hhhttitttii00i0iiiii",
"nncj0hccBBBBBBnnn4jcccnBBncnBj,cBntnnnj,jBj0nnnBBBnnnnnttBnnBnnn",
"44494tt00000t0000,0tt0tt000tit,494$,,44$4949t00ttt0009i0900999,,",
"t,hjijh90ihiiitjjjjcttcjhjh0jjhhh4hhhhciijcncjtjhhjn0-hcjhi9tccc",
"t-ihhji40hhihjtjcccc0tjchji0cccjc9jcjjjiicnncjthjhhj049cjj990icj",
"0tiiitt00009tt09999440090tt0ihhiit0t0909,490t0t00499999900494,44",
"nnnnnnnnnnj0nnncjBBBBnctiBnnnncnBcjn9hncjhjcnnccn4cBBnncBBBncj9j",
"iittttthhjt,hhjiiiiiiti09ihiiiihhhih-9iiittitit0t-tihhhhihhhji4t",
"040t000, +$-- ,itt00,9i00tt400tt0,t00994499tt0400itt40ihiit4ttit",
"ctnBnnAt$4909-9nBBBB0icjnBctjcnBn4ccccchtcjccjtnBBnn0tjccnjtjcBn",
"04tt099,$--,,-4it094-,444t9494494,90944440tit04ttt00944440940900",
"hccctiihjjcnccccj4ijjccjjjhhjj-,40009,4490-tcccccccjcjc00jcjjhjj",
"jjhjthhhhhcjcjjjj4jnnnncchjjjh,9tt00994994$0ncncccjihhi49jjjjhhj",
"4,4900t9$$-,-$,000094-,,,,,909009,00009,499009,49994-4,,444$,-,4",
"nthjjhh040009$4nnncct,9ttt49nccnctcnnBBhicnBnj9ccjnc9hBBnnh49ijB",
"i9t0tt0,+-,4,$,ihhit9-4994-,tiiit400ihht9ttthi499t00-9tti09-$tti",
"hhh0hh9,4,40ihiiiiiitii00ttiiihhhhii0itiiiiihhit0,000t00000tt0,i",
"icjhncijjchtnBBBBBBBBnn00cccnnnnBBccicBBBnBnncncc9cncnnnnncnnj9h",
"094900009949iii0990009994099909999994000t00iiii09-,440tiii090t90",
"j9hjjjjt0jjcch00thhh9tihhji9hhhih900004+tcjjcj0ijcjj94hccjh9jcnj",
"i9jhjjh00hjjjt4ttjihtihihji0ithhj449994$tchhjh9hjccj9,thjjh0jjjj",
"90t9490949949094,$-,4444,,944,$4,49494990t0$49$,,,,-$,,,9000t00t",
"nnch0iBnnnnnnBBnn499hhiticnBnh,nnnjjj0cnnch4BnjjcnBBccc94ccncBnn",
"tt09,400tiiiihhii-,9ti0-9t0ii-$tit0009iiit0,t099ttiitti4,iiitit0",
"t-4404++9ttttt9ttihh9tittt94itiii9tttii00hit00,iiitt90iiiht40090",
"B90iit4$injjtt0cnnBn9hnBnnjtnnnnnihccnniiBchjj4ijcjnijBnnBjtnnnB",
"9,4999,-499--,,00tii9,,,4,,40titi00t99t0909,49,,,,9040t0094,4494",
"jcjcccncjch$,0tttthit99-tccccjjcnncnthcccjjjjcjjj4ijjccjcccjjh4h",
"nnjccccccnj4009tiiit009,tcjjjhhjccjj0ihhjjjjjjcjj,hccnnccnnccj9n",
"t99990t090tti0400t94400994-$--,99,444004  $-,+-9449490t00990t0tt",
"c0jccnBhtjccjjtnnnccijnnBBh,nnnnB4jnnBBh+49004,nnnnc0hjccjhtcnBn",
"0,99ttt99tttt990tttt4tttii9+ttiit-0tiii0+-,4,-,iiiht4ttt0t9,000t",
"ii0$+9iihiiiiii0i,90tittti99tt,ttt00tit0tit9ttiiiitihii09iit0904",
"BBnj40hnnnnncnnjj,chcnnnnnctjt,cnBBBBBncjch9nnnBBncnBnnithcchhnB",
"4--4--44-,,,---,--099000009-,44ti009449,409,444t09t09904---,,,,,",
"c-hjj0j00jhjjh,ccnccttjjhji9hjcjh9ittti49ccccj4hjccj9icjcci4jjjc",
"j-jcjti00jjjji$jjccjticccj99jjhhi90iiic09hhjjj4iccjh4ihhcci9jjjj",
"44999999900,$++$4-,,94--9t9t000t0049$,999004$4499$4449900944,440",
"hcnnBncnnnj,000tt0tti09-tnBBBBBBnnnB0hnnBBBjjnnnn$jnnnBBnccnh90j",
"itihhiihcji,,,-494444-$-0hjjhhhihhhj99hhjhh0thjjh$9tiiiitihht99t"
};
