/* XPM */
static const char *purple_wall[] = {
/* columns rows colors chars-per-pixel */
"64 64 50 1 ",
"  c #7E6CCA",
". c #7877CE",
"X c #7A6ADA",
"o c #6C79DA",
"O c #7C7ADB",
"+ c #7A6CE7",
"@ c #6C7AE9",
"# c #7B7AE7",
"$ c #6C6CF5",
"% c #796CF5",
"& c #6C7AF5",
"* c #7A79F6",
"= c #877BCE",
"- c #846CDA",
"; c #837ADB",
": c #947CDD",
"> c #855BF2",
", c #846CE8",
"< c #916CE8",
"1 c #847AE7",
"2 c #9479E6",
"3 c #856CF5",
"4 c #936CF3",
"5 c #8579F6",
"6 c #9478F6",
"7 c #7F81CF",
"8 c #6B83DC",
"9 c #7C85DB",
"0 c #6F95D9",
"q c #7B94DC",
"w c #6C86E7",
"e c #7B85E7",
"r c #6E93E8",
"t c #7B93E7",
"y c #6C83F6",
"u c #7B86F6",
"i c #7992F5",
"p c #8881BE",
"a c #8385DC",
"s c #9486DD",
"d c #8494DB",
"f c #9190D6",
"g c #80A0DE",
"h c #8486E7",
"j c #9485EA",
"k c #8493E7",
"l c #8289F9",
"z c #8586F6",
"x c #9389F4",
"c c #8794F5",
/* pixels */
"##,,e#+11++1#19e;OOe;O#11<1ez#ekh;@<3#1+hhhktk8###e+1+++#51O#1eh",
"zatzh@$1+%*5u59ceezueuuzlxjkuzccl9il65$,jzzeeh8eluuih$**uz5euzxu",
"1999e9th###1eO-1Ohee#e#;hh;9ehhhh9kqkkrhsaOX-XXOOO#eh#,;eeO=h1;O",
"%+++<1++*++****5*1**##%,55#*51sk1hhheeue11e@1O#1;1##%331eue#543+",
"eeeea@+11uiuzlccuaueetee15zuzh:e#51#***#11#o5hueO1eoeke;euiiz51*",
"eaq9aa9;aehe9O9he,1eaehhOeh9#h;XX--O#;.;OO O1199aha;ata;1;9OOOOe",
"*;hul5wheuzzy#Ozuu6lhulu5uz#u5*@za5%*wuh#uth2#;ll5562#****1#%5eu",
"O;;hO#ehehh#@#akktjh1ezekze9e#1tk;-O,#edO1#aa7dtteh1;O##e1h9hhte",
"tee1+-+1hO.;ee#eh#e#1@#;##111#@12++%1hkdtehka9eak8#11#1hh#kaheeu",
"uuuuue9h1#a15u*ehl&5cyu11*z555uk5***11*#*e115##hh8ezz#jh#hhuzzeu",
"#eh9qk999da;1#e;9h@hhtkkakte1h1h99eha,-OOO+,,-O;-o9aeaa1Oh1a#1O#",
"#;+3h2$#9uez++O,2#e52hehkkwwuh#3h7kkuee9eee#hO=#,35179#jzyze@###",
"#1#2<1*19ee*@#9zxuicj1hj#1owue@12hkuuzitelt99Oauhhxl9wtjhik#ettw",
"e11119#1;1,#O-9theheh-,XXX-#1;O,,-.-###11ee9@h1+O9#+#11aO9;#2e1#",
"5#531yylu*6uuz5lu15uu1%%**zz56#554#55*#53%##*u%33uiuu56h+5554*55",
"1eh#Oweheehhteh1ehhe#e#eehhh52#112;e51ee##sqe#ueh1ttehh1#h11j2e1",
"+;hhh1he11111191#11h9O1O11;O#-=11;h1hahhakkqtt9#eh11aO###11#3,++",
"uhxx5zzehzx555hzlxe5h9zeu*1urezlleccezls141*ue@*llll;#5uuz5#*33*",
"eaO-;;--O1Oe111111OO;a9h99a;eeaahe119;h:;,-XXOOe;;19O;;hh;1##h;;",
"35$%5*5,<+#O@#5*155hx##1#1hhu1h+1w#zeez5hx##ezhy5;+55311*%5*55;5",
"55yu555eh1O9iililzcc1eehezhzuheekiichiccceekchkri9tz*15%,5z**1az",
"#9#O91#9eh#O9;hdqdqe99;;eh;ehaheh9hh9ehaeh9Oaae#9;OOa9a9h1;eha11",
"le#1*%%*1*%+@1j11z#h8#65eu1ellhyzez6iulh;45&51#*5z@*1O53535eciuu",
"heO#+#5h#+O=O9:11,+;oO2hee9ahhktke#jhwhh.-1eh1eeeh9eh;#11119e9ee",
"#x1we###*111+15+,,,,;e##+-a#1e=O,O+,#h2#@3,;,1+-###hh1,1#,;#1##,",
"icz*e1&&55z**55yzhckhu*uu5zuzi1355wzlz5O&u5hz%%555hhu*51e*6uzuiz",
"hh9#;9eeeh1eehheeOh1a9ehhqa9hh;aeh;he1#O#ee1#ehh#19,19hhe9a9e199",
"h9exhuu;##5@1##*%+*%1#*51*e;5***&ezzeh*z*%%555hu&@**1O553%@O#*@u",
"h7tx#*#8;3zyu*1&#u*51euzz*1;5*5*u9kcclik#*ullzh&*ruueO,55*#ehwuk",
"#1;11;#1111O###h###1O1#;#1--111#e1e#1e1##11e#1#+11#1##O;#1;e#;#+",
"563%5%$%3%515uix$*55*6*1*5**333*u6$%1%33y<4*&35*51*555liuuzzuz1#",
"e1+11##uu5h15zheeheehhehe1he#1,1h*@51#16#e2#we1ee;hhz1jeeehhhhah",
"1O##e#+1jktthhO11,#@eej1O11;ee###9heehhh;2eee19#11eehqehhee9e###",
"*#***yuj21uuz#wlu5**etx*y55#*yy*ue1*uzz1;45uy1Oylzluhetzuuz#*yuz",
"eO#e1ee;-,O+,+###ee#1#1O9e;O1O9tdqqkaqadqa9##OOe#hh91O9O;1;O+O9;",
",,151@+++,#*535*31#*5**,3zheeh2h#hkth1euttt@5%*%*%355euh#,##1,%,",
"hhh1hww#e15eh1hu*#uuluucz55zie:,#j5*#,,*+1#@zuuuuuz15ztariu*#,,1",
"haaa;9#afqqdgq9#11h#hkqkth9ea;;;;O+#+1,XX-XOh;9aahhO;##1#1-9a9ah",
"zaj55#hajz*1ze#5z55&12#eheh8115z1#5uilu#huy5551h5,311@uzz52kktyu",
"ea111;;;1+11,+exhh1@h,+1,;OOhah#aO1,heeeh#e#1h;;O11#O9uhhkja9ete",
"h#e9heO.XOa+#11#++##++1<,#++,;##1##hh#O###111eeeka##h11,#1@+,a=;",
"aueeuueeeiheuh****l*uul1#5#ee6**55lz#euuuej65zuik9uc*35555&yxja1",
"aaOOa9eehea;eateeehethehO19a9h1ehhh9attteehhh1hehO1##O;;heeta;;a",
"51#1111e1he1hj1o##;,;1ze##;.+11+#2hhhehw9j155hOo#55%1euuh@1;*uz1",
"h9thkkhhhhuxxkOo#*ahaz5#@zh9eO2e1h111#1#ekhzz5#@euu*2eueeuhaeule",
";O1a9eeh;1hah#OOO;=;OO;#;9O111a9;1,;+;X#ehe9e1aaaaeO=O;;;##;#+;#",
"*56%1tuuzxciuuzuuh.=ueO@15uuzz#uuzz&hauiuuueuzhhzu*zeee;;5u5%%45",
"ike;f0qtkhhettktta7d9tw7ehhtkOOjtkeaf9heeteeukaahttkheeaahhwwz12",
"1sh912h8;,11,19#Oh1he#1,11+O#1#11OeeO#haO+11+<;#+21+;#15+#1#####",
"zjz*h558+41#X<auuzzzh3555%5huuluuhw*#ezh#***#61+#65*1#5****e&**z",
"h:-X+,-X91;70fa99qkkhdhte#;;#1heh;O#aO119heO9hO9a11#1#1#ehOOO9hh",
"15+*h15*z5haehee1euhheee@355%4,135**1#**%%>33*ee5#,5h5zuuuuhzh;1",
"hl#zzzzuilc2+1e9#1ee1#1wwhhe*16*5zu*1eh@##1j5#ueuahxzzzuuulklua5",
"#9ehhaha9he1#; OO+-OX#,+#1Oe11h11heh1heafqqdh99aaO1;9aa9O;99hO11",
"*#iccuzh#5%5*uh*****huu**%5#5z5551*lzz*22*hu*#o55%53,e15u51#*#53",
"#Ohheeeh#1#1#1#ee1#hh#ee#uh;hhkkhahkeeuh,,,+-Ooh##5haO11e1aaee1h",
"O1;.=;###11@#1##,;9;#eeeeh9;e11ee##O111@11##+,++1,++<5##O11#O;O;",
"155uh-1uu55@e55e51lehulueiyO*h9****uz5*ucuz@y555*5*u65*eh#*&ke**",
"eh1h1;;#.99OOeaaO;heh91ha9#99e.hee#eehhk#eeOO#1h#1ehh;1#9O#kh#ee",
"*#zhch,1ekkc*5#55534191h11j9ezhhz##9ta#e#5euuuhu**5%#@5euuu#*5%*",
"zeczlehhtccirkahz*56jre11xjOezzzu9eeeeuheciiiche*uly#uciiuheuuuz",
"#1h#hah;#h#fdq9qtdtaeh9q9;;##e#1;;;#;;h#1##e9e;O1h#1##111e;#Oa9e",
"ru*uuhjuuuz:55e*hhee1z*@wlz**5ulzuuzhhzul*uhulzuz9uxliul6*&5kp;u",
"tteukthhzuh2,,++,,,#;;OoOhuuezuhzutkhahhuhudtcliiakccktiheichaah"
};
