/* XPM */
static const char *red_wall[] = {
/* columns rows colors chars-per-pixel */
"64 64 217 2 ",
"   c #3F0A01",
".  c #3F1A0E",
"X  c #3F1C11",
"o  c #3F2217",
"O  c #3D241A",
"+  c #2C271E",
"@  c #2D2B23",
"#  c #2E2F29",
"$  c #342C23",
"%  c #392D25",
"&  c #332F28",
"*  c #392F29",
"=  c #2E312A",
"-  c #333127",
";  c #3D3127",
":  c #34322B",
">  c #3B342C",
",  c #363631",
"<  c #3B3631",
"1  c #3D3A34",
"2  c #3E3D39",
"3  c #450D01",
"4  c #4C0D00",
"5  c #530E00",
"6  c #5B0F01",
"7  c #451206",
"8  c #4D1004",
"9  c #441308",
"0  c #4A160A",
"q  c #46190E",
"w  c #4B190E",
"e  c #541104",
"r  c #5D1102",
"t  c #52160A",
"y  c #5C1609",
"u  c #55180A",
"i  c #59190B",
"p  c #431C11",
"a  c #4A1E12",
"s  c #521E13",
"d  c #581E11",
"f  c #630F00",
"g  c #641101",
"h  c #6B1202",
"j  c #63190B",
"k  c #6A1A0A",
"l  c #741402",
"z  c #7B1604",
"x  c #761806",
"c  c #7E1805",
"v  c #7D1A09",
"b  c #741E0C",
"n  c #4C2015",
"m  c #42241A",
"M  c #4D241A",
"N  c #4A251A",
"B  c #532115",
"V  c #5A2215",
"C  c #53251B",
"Z  c #5C281E",
"A  c #65271A",
"S  c #6C2A1C",
"D  c #682517",
"F  c #7C2618",
"G  c #732B1D",
"H  c #7A2C1C",
"J  c #7A2415",
"K  c #442C23",
"L  c #4B2C24",
"P  c #4B2F29",
"I  c #532D25",
"U  c #5D2E23",
"Y  c #512F28",
"T  c #4D3127",
"R  c #42342C",
"E  c #4C322B",
"W  c #44342B",
"Q  c #53342C",
"!  c #5A342C",
"~  c #5A3328",
"^  c #433B34",
"/  c #4A3C35",
"(  c #423F39",
")  c #4C3F38",
"_  c #473731",
"`  c #553931",
"'  c #5B3B33",
"]  c #573C37",
"[  c #6D2D21",
"{  c #602A21",
"}  c #732D21",
"|  c #7B2E21",
" . c #623125",
".. c #63342A",
"X. c #63392F",
"o. c #6A392F",
"O. c #753124",
"+. c #7B3225",
"@. c #753529",
"#. c #7B3528",
"$. c #7B3A2E",
"%. c #70382E",
"&. c #643C34",
"*. c #6B3C33",
"=. c #673F38",
"-. c #753E35",
";. c #3F413C",
":. c #44423C",
">. c #4B433C",
",. c #52433C",
"<. c #5A453D",
"1. c #55453B",
"2. c #6C4036",
"3. c #66413A",
"4. c #6D423B",
"5. c #644137",
"6. c #714136",
"7. c #73453C",
"8. c #75483D",
"9. c #464541",
"0. c #494541",
"q. c #494642",
"w. c #4C4A45",
"e. c #4E4D4A",
"r. c #474943",
"t. c #5A4742",
"y. c #554943",
"u. c #5C4B44",
"i. c #514E4B",
"p. c #5C4E49",
"a. c #524640",
"s. c #4F504D",
"d. c #52514D",
"f. c #58524D",
"g. c #555452",
"h. c #565654",
"j. c #595652",
"k. c #5A5956",
"l. c #5D5C5B",
"z. c #575855",
"x. c #684B45",
"c. c #724741",
"v. c #744A43",
"b. c #7A4C44",
"n. c #7C4E48",
"m. c #69524C",
"M. c #65544E",
"N. c #7D504A",
"B. c #7E5047",
"V. c #685753",
"C. c #665C59",
"Z. c #5F605F",
"A. c #63615F",
"S. c #72615C",
"D. c #646464",
"F. c #6A6B6C",
"G. c #676969",
"H. c #811605",
"J. c #821704",
"K. c #891705",
"L. c #851805",
"P. c #841806",
"I. c #8B1A07",
"U. c #841A09",
"Y. c #8D1B08",
"T. c #921A07",
"R. c #931C09",
"E. c #9B1E0A",
"W. c #9C1C07",
"Q. c #A31F0C",
"!. c #88200F",
"~. c #95210D",
"^. c #9D210D",
"/. c #832D1D",
"(. c #8C2F1E",
"). c #832516",
"_. c #9D2311",
"`. c #942D1D",
"'. c #9A2F1E",
"]. c #952210",
"[. c #86301F",
"{. c #9B301F",
"}. c #A4220D",
"|. c #AB230E",
" X c #B2240F",
".X c #A32411",
"XX c #AD2510",
"oX c #AC2915",
"OX c #AD2C18",
"+X c #B32611",
"@X c #BA2712",
"#X c #B42914",
"$X c #BB2914",
"%X c #B42C19",
"&X c #BA2F1A",
"*X c #853323",
"=X c #8D3425",
"-X c #843629",
";X c #8A3629",
":X c #813A2C",
">X c #8B3A2A",
",X c #963423",
"<X c #9D3523",
"1X c #933A29",
"2X c #953928",
"3X c #873C30",
"4X c #A13A29",
"5X c #A23423",
"6X c #C22D16",
"7X c #CB2D15",
"8X c #C32D18",
"9X c #C73117",
"0X c #D33118",
"qX c #834F48",
"wX c #834E47",
"eX c #82524B",
"rX c #8A534C",
/* pixels */
"g g g r 6 6 6 6 6 4 4 z.k.E.R.K.I.T.I.P.I.Y.H.x l l g r g 6 6 6 6 6 6 g h g g 6 6 6 g g 5 3 E s.} L.I.I.z l ~.Y.h l z z z h 6 h ",
"g g g 6 5 6 6 5 5 0 q h.j.R.T.H.H.L.L.L.H.H.x h h h r g g 6 6 6 6 5 5 g h g r 6 6 6 6 r 5 4 T e.o.H U.P.l h Y.c h h l h l g 6 g ",
"6 6 6 4 3 4 5 3   W ^ i.i.U.v l h g l L.h 6 6 6 h h g h l g 6 6 5 4 4 h l 4 4 4 5 4 3 4 4 5 T e.h.j.A g 6 6 6 r g g 5 4 5 5 4 4 ",
"u u i 0 9 0 0 9 9 W ( i.i.).J k k y j b j e y y g g e y j y e e t 7 9 j k 8 7 7 7 9 9 w w t _ e.h.z.U j t t t u i u 0 0 w 0 0 w ",
"( >.i.:.# : > > : 1 1 i.d.i.i.>.:.> < 1 - @ : > @ @ @ @ $ @ + : > > : 1 1 @ - > > > :.l.z.h.h.h.h.h.h.g.:.( ( :.:.:.:.:.q.q.q.q.",
">.q.d.q., < 1 1 1 ( ( i.d.d.e.q.>.1 1 ( < : > > & - & : : : - < ( 1 1 ( :.: < _ ^ ( 9.l.l.z.z.z.z.z.z.z.q.q.9.q.q.w.w.w.w.w.w.w.",
"A.D.A.l.l.h.i.h.z.h.z.z.h.z.z.z.h.e.d.l.D.D.w.( i.d.d.i.e.l.D.D.D.l.z.D.D.D.D.D.D.D.A.z.l.l.l.l.D.G.F.F.D.D.D.D.D.D.D.l.l.l.l.z.",
"b.b.b.b.b.4.=.c.c.8.8.8.8.8.c.3.u.z.p.c.wXwX-.%.6.7.6.6.2.b.eXeXeXb.8.n.eXqXqXeXN.N.v.4.c.b.c.7.n.eXeXN.v.v.n.n.N.N.B.b.b.b.b.7.",
"Q.|.XXXX+X|.Q.|.|.+X+X+XXX|.XXH.O.D.b.^.+X7X7X7X$X$X+X+XXX+X$X6X6X$X@X$X$X$X@X$X+X|.Q.R.}.+X|.E.|.@X+X|.W.E.$X#X#X+X@X+X+X+X+X|.",
"}.}.E.E.E.E.T.Y.R.}.|.|.}.R.R.h [ Z.8.^.+X6X$X$X|.XX}.}.}.}.|.|.XX|.}.}.}.Q.}.^.E.E.E.Y.R.E.T.I.E.}.}.}.I.I.}.}.XX}.^.}.+X|.^.}.",
"|.}.Y.I.L.I.I.l h E.}.^.R.z z 6 Z z.8.XX+X$X}.^.E.E.R.R.I.T.R.R.Y.I.L.L.L.P.c l c Y.I.L.c l l l c P.R.E.l l L.Y.}.R.l I.|.^.I.R.",
"R.R.I.P.z c c I.I.I.I.c z g r 4 C l.8.XX|.|.R.L.L.L.H.z h z L.x h z P.z l l l P.z h c Y.L.c z l z c c c z z H.c x x L.L.I.I.I.R.",
"T.I.L.P.l z c R.R.L.P.l l 6 6 3 I F.eX|.|.}.I.c z z l h r l H.h 6 l c l h g h L.x 6 z ~.Y.H.z l z c l l c c c l 6 h I.L.c L.I.R.",
"}.E.H.z l c L.L.P.P.L.l h 5 5 3 I F.rX$X X}.E.E.l l l h 6 h z z c h g h l g g l l l U.}.Y.l z z z z L.I.c c g g 6 f z l g h h l ",
"|.^.c z z P.I.H.c L.L.l l 5 4 3 I F.rX7X@X|.}.}.z l l h 6 h l H.I.h 6 h l g g h l l U.}.Y.l z c z z I.R.H.c f 6 6 6 l l g g g h ",
"c z h h h h h z c h g g h x x 6 C i.6.+X^.L.c c z x 6 g l l c l g h h g g 6 6 h h 6 x I.P.z l g h h l x g g x z U.x 6 6 6 g h g ",
"h h h h h g 6 x P.6 6 r g P.c g s q.o.|.R.c l l z x 5 r l z c g 6 h l g r 5 6 h g 6 h H.c z h g g g h h 6 6 z P.I.x 4 4 6 g l r ",
"4 4 4 4 4 4 6 g h 5 4 5 5 5 6 g V >.X.E.I.c 6 4 6 5 4 4 4 6 g 6 4 5 6 5 6 6 6 r 6 4 5 6 r r 6 5 4 4 5 5 6 6 r g g r 4 3 4 6 r 5 ",
"4 3 3 3 3 8 e g g 4 8 8 8 3 4 g V >.&.E.U.x e 3 4 4 3 3 3 e r e 8 8 8 8 e e e e e 8 8 e e e e 8 3 3 8 8 e e e e r e 4 3 3 e r 8 ",
"* * ; ^ >.y.u.<.1.,.,.,.) % * W / q.w.u.<.1._ > _ _ > > > / ) >.>.) / / / ) ) ) ) ) ) ,./ R / >.> $ _ / % * ; W ,./ W ; K R K _ ",
"! ~ Q ' 4.c.c.6.6.7.8.7.2.T Y X.&.=.2.6.2.*.*.&.=.&.X.' ' ` ` >.r.] =.=.3.3.&.&.&.5.3.4.=.X.&.=.! I X.*.U U  ...*.X..... . .U &.",
"$X|.E.E.XX}.R.Q.|.+X#X$X#XE.E.XX|.E.Q.|.|.|.+X+X|. X+XXX}.I.h C ;.`.@X+X#X#X}.E.Q.+X+X+X#X+X|.}.|.XX+X+X+X$X6X$X}.|.#X#X#X#X$X X",
"+X}.E.E.^.R.I.E.}.}.}..X}.^.^.}.^.Y.R.}.E.R.~.~.}.}.}.^.R.c g M 2 `.@XXX}.}.E.Y.E.}.}..X}.}.^.E.E.E.}.}.}.}.+XXX}.}.^.^.^.^..X^.",
"E.E.E.Y.c c c R.^.H.z c P.}.}.R.I.h l L.l f f f I.L.c z h g f M 2 `.$XY.H.H.H.z c H.H.L.H.c L.Y.c l L.I.l l E.E.E.Y.h h h h f l ",
"R.T.T.L.z c c Y.R.H.z z c ^.~.R.L.z c L.l g g g L.L.c z l g 6 N :.,X$XY.P.H.c l c I.P.c c c H.I.c l P.L.l h Y.Y.R.U.h h h h l x ",
"l l z h g z H.z l c c l z Y.I.z L.~.R.I.x g l z c c z P.L.h 4 L d.4X8XR.H.c z h P.^.U.g h l z z H.P.l l l l l l z l g h h z ~.c ",
"z l l h h z c l h x z l l c c z c Y.I.c x h l l z l z c c g 5 L d.4X7XR.L.P.c l P.R.c h l z z z P.I.z l l l h l z l g g h x Y.c ",
"R.P.h h l l h g r 6 6 r r 5 6 l g 5 g h l c l h 6 6 l h 6 5 4 N 9.<X6X}.E.E.R.Y.L.z c L.P.P.z l R.}.P.l z l 6 g l l h h h g 6 v ",
"L.c g h h h g r 6 4 5 6 6 5 6 h g 5 r g l c h g r r g g g 6 4 m 1 `.+XR.I.I.I.L.H.l c I.P.z h g c Y.x h h h h h g h h h r r 6 v ",
"z l g g g 6 6 4 4 3 4 6 6 5 6 g 6 5 6 6 h z g 6 r r 4 5 h r 5 p > ).}.P.z z c z z l c Y.c h r 5 h l g 6 r g c l 5 r l h 4 5 r v ",
"h g r r 6 6 6 4 4 4 4 5 5 5 5 6 6 4 4 5 r g 6 4 e e 4 4 r 6 4 m < F R.x h h h g g g k x k g 6 4 r g r 6 6 6 h g 4 r g r 4 4 5 k ",
"4 4 5 5 5 5 5 4 4 4 4 4 4 3 3 3 3 3 3 4 3 3 3 3 4 4 3 4 4 4 4 m < C j 5 4 4 4 4 3 3 4 5 5 5 4 3 4 4 5 5 4 4 6 5 4 4 4 4 3 3 3 3 ",
"m o o o m N L K K T T T T E W K K E E E K K O O O O O O O O m W :./ Q T P ` Q m K ] Q T T L K K K K T T O O m m L L L L L K K K ",
": - - - - 1 ( ( 1 q.w.w.w.q.q.:.q.d.d.i.:.( > : : : - - - : > ( q.q.9.q.w.h.d.< q.A.f.q.:.:.:.( :.:.w.e.- & & : / ( q.q.>.:.( ( ",
"H H H  ., ( q.! F ,X2X=X=X1X>X*X>X1X;XO.H | *X[.*X/.D D H /.[.*X>X;X;X;X;X1X=X/.=X2X=X*X} S H /.1.9.:X2X/.H H /.(./.*X[.H } G G ",
"|.+X+X(.2 9.e.@.Q.0X0X$X$X6X6X#X$X7X XT.E.|.$X6X6X#XY.E.|.$X6X$X6X6X$X#X#X#X+X#X+XXXXXXXE.L.E. X=.r.5X6X$X$X$X$X+X+X|.}.E.E.R.R.",
"T.T.I.v j ~ w.>X$X|.|.}.}.T.Y.L.L.I.R.R.Q.}.R.I.Y.R.R.R.R.T.T.L.z R.E.L.L.P.I.}.Y.x P.E.Y.L.z h Q :.`.+XY.Y.R.Y.L.L.P.P.P.H.z P.",
"Y.I.H.z h U w.>X$X|.}.^.E.L.L.c c L.I.R.E.}.I.c P.L.R.R.I.I.L.l h L.R.H.z z L.E.U.h z R.I.P.l g E :.`.XXH.H.L.L.c c z z c z l c ",
"I.I.P.x 6 I e.:X XQ.}.x x h h c c c l h h l c P.P.P.L.H.z P.I.c l l l l l L.I.Y.z 6 h L.z l r 5 E :.'.+XI.L.z z l l h l z l l z ",
"I.L.P.x 6 I e.#.|.Q.}.h g f f z z z h f f f z L.P.P.H.z l H.Y.P.l h h h h I.I.L.x 6 h P.l h 6 5 1.j.<X#XI.I.l l l l h h l l h l ",
"5 h P.x 5 L w.#.Q.z l g h I.I.c c P.l h x P.L.I.c c L.z g c R.I.z h g l l f h c z l l l h g 5 4 ,.z.<X#XE.R.h h P.P.c x g g 5 g ",
"6 h P.x 5 I w.#.Q.z l g h I.I.c c P.l h l L.L.L.c z L.z h P.R.I.z h g l l g h c z l l l h g 6 4 ,.z.5X#XE.R.h h P.P.c l g g 6 g ",
"6 6 4 4 5 I w.O.E.K.L.l l l l h l L.z g h c g 6 g h h l c I.R.I.H.c z l l P.c l h g g h g 6 5 4 ) e.{.+XI.I.g g g h h h r g l h ",
"e 5 3 4 e Y e.O.E.K.L.l h h h f h L.x r h z g 5 g g g h H.I.I.L.c c z l l P.c h g 6 r h g e 8 7 ) e.'.XXL.P.f r g g h g r h c h ",
"5 4 4 q W :.e.[ L.g r 4 4 6 6 4 5 5 4 4 5 6 5 5 5 5 4 5 r 6 6 6 5 6 r 6 6 5 5 5 5 4 4 5 p $ * ; 9.e.F I.f r 6 6 4 4 4 4 6 6 r 6 ",
"6 5 4 p 1 :.e.[ c 6 5 3 3 4 4 4 3 3 3 3 4 4 5 5 5 4 3 4 5 4 4 4 3 5 6 6 5 4 4 4 4 3 3 4 X $ : > 9.i.J J.6 5 5 5 3 3 3 4 6 6 6 5 ",
"W _ ) >.:.q.e.>.) ) >.>.>._ / ,.) ; * ; _ ,._ > >./ $ $ % $ $ $ @ / <._ W > > ; ; ; ; ; i.A.j.w.e.e.,.,.* % % * % > R > ; _ u.u.",
"_ / >.>.,.a.p.,.) ,.,.a.,./ ) y.>.< > > ) a.,.) t.,.* ; W * * * % >.p.:.1 ( 2 > R W W R u.S.M.a.y.t.t.,.; ; W W ; W / _ R >.p.p.",
"_._._.oX%XOXOX.X~.~.].v v x v _._._._._._.~.OX&X%X%X.X.XE._..X.X.X~.!.! :.Z.V..XXX8X#X^..X#XoX.X%X&X%X%X_.^._..X.XoX#X#X%X%X%XoX",
"}.}.}.|.$X+X+X}.Q.E.R.H.c z H.}.Q.Q.}.}.E.E.+X$X#X+X}.}.E.}.|.|.|.R.I.~ / D.V.|.+X7X@XQ.|.+X|.|.+X#X#X#X}.}.}.}.}.XXoX+X#X+X#XXX",
"I.I.c L.R.R.E.T.I.l l c c c c I.K.H.H.c H.L.c z c z f l T.L.c L.K.c l e e C.V.}.T.z H.L.T.E.}.|.I.z c c z c H.c z l h l I.H.z z ",
"L.P.z c Y.R.R.Y.L.l l c c c c L.H.c c z c P.z z c z h l I.L.c L.I.z l 6 e l.m.Q.Y.l z P.Y.R.^.}.P.l z z z z c z l l h l I.P.l l ",
"6 6 h h l c I.l h l l l l h h g g g f g h l L.Y.h h P.L.c P.Y.Y.Y.c l g e l.m.}.T.l l z l l P.I.l g c L.l l l h r g c P.R.P.h h ",
"r g l l l z H.l h l l l l h h h g g g h h l P.I.x l P.P.z c L.I.I.z l g r z.m.}.T.l z c z l c U.l g c L.l l h h g h z c U.c h h ",
"h h l l h g f z L.f 6 L.H.6 6 h h g l H.z l l z R.R.H.l f f g l z h g 6 4 l.m.}.E.L.I.R.P.l g 6 g h I.R.z z g h c z l h 6 h l l ",
"h h c l h h h z P.f f c c 6 6 h h f h H.z l l l R.R.H.l g f g l z h g 5 4 l.m.XXE.L.I.Y.P.l g 6 g h L.Y.z z h h c c l h 6 h z l ",
"l c ^.R.H.c c l h h h 6 6 l h 6 6 g g h h h l l c c z l l z H.z l g r 4 3 w.<.XXR.z l l z H.x h c I.h 6 h l c c L.c l g 6 h c l ",
"h x Y.U.x x h h g g g 6 6 h g 6 6 r r r r g h h x x l l l l l h g r r 4 3 e.<.^.Y.l h g h x h g x c g 6 g h x x x x h g 6 g l h ",
"6 6 6 6 6 6 6 4 4 4 4 4 4 4 4 5 5 4 4 4 4 4 5 5 r r g g h g 6 5 4 5 5 6 e w.1.I.z 6 5 4 4 5 5 6 5 e 4 4 4 5 4 5 4 4 4 4 5 5 4 5 ",
"C B q a a s B p . . . a a p p q q p p X X p a a s B V V d s w a n C Z Z { w.>.D A C C C n a n C C M M M a n a p p n C C a n M n ",
"i.:.@ # : 1 :., # = = 1 ( 1 1 : : < < , = # 1 1 1 2 :.1 : : : 1 >.f.j.l.l.9.:.1 9.h.d.i.9.1 :.w.w.w.i.w.2 2 1 < > :.h.d.1 ( q.:.",
"-X+.D A S [ O.S A S S S S C M ( :.:.` [ G H | O.+.+.+.O.[ S S | ;X>X3X$.$.O.O.} O.$.@.@.} G } } O.O.#.#.} [ ^ 1 ( q.d.y.G +.;X-X",
"}.}.}.}.}.}.}.}.}.|.|.E.Y.g j w.e.e.2.+X$X$X+X X$X+X XXX|.|.Q.@X6X@X+XE.R.|.|.|.}.E.E.T.E.}.R.I.I.I.^.}.^.~./ :.w.w.d.u.|.$X7X$X",
"L.L.L.L.Y.R.E.R.R.I.Y.I.P.6 y w.w.s.6.+X|.E.E.R.E.E.}.E.I.I.I.T.R.Y.I.L.L.R.R.R.I.l c L.I.I.L.H.z l R.E.R.R.D U 9.w.z.M. X|.^.^."
};
