/* XPM */
static char *_72031853500425ad671732c21c55845HXwiJlctocnEPVJ8[] = {
/* columns rows colors chars-per-pixel */
"63 64 37 1 ",
"  c #008080",
". c gray33",
"X c gray25",
"o c #FCCCB0",
"O c #FCD4BC",
"+ c #FCC4A4",
"@ c #FCB890",
"# c #DC8854",
"$ c #885830",
"% c #FCBC9C",
"& c #FCB080",
"* c #FCA470",
"= c #BC7848",
"- c #C87C4C",
"; c #9C6038",
": c #D08050",
"> c #905C34",
", c gray36",
"< c #F0945C",
"1 c #80502C",
"2 c #FC9C60",
"3 c #E88C58",
"4 c #B47044",
"5 c #744C28",
"6 c #A86840",
"7 c #FCA85C",
"8 c #A0643C",
"9 c #6C4824",
"0 c #5C4020",
"q c #343434",
"w c #543C1C",
"e c #2C2C2C",
"r c gray22",
"t c #4C4C4C",
"y c #FCD8C4",
"u c #FCE0D0",
"i c #646464",
/* pixels */
" ..............................................................",
"                                                               ",
" X.oOo++++@#$X.%+@@@&&&&&&&&&*=$X.&@@%%%%%%@@@@*-;.oo+++++++@:>",
" X.oOo++++@#$X.%+@@@&&&&&&&&&*=$X.&@@%%%%%%@@@@*-;,oo+++++++@:>",
" X.%+%@@@@*-$X.%%@&&*********<=1X.&@@@@&&&&&@@&<=;,%+%%@@@@%&:>",
" X.@+&&&&&<=$X.%%&**<<<2222223=$X.*&&&&&&&&&&&&<=;,@@&&@&&&@*=>",
" X.@@&****345X.%+&**2<<<222223=$X.<&***********3=;,&&&&&&&&&*41",
" X.&&*2222#65X.%%&22222<<<<223=$X.#*2222222222<#4>,&&*******<65",
" X.*&<<<<3:65X.%+&277222<<<<23=$X.#*<<<<<<<<<<3:4>,&*2222222365",
" X.**<3#3#-85X.%+&2727**2<<<<341X.#2<333333333#-4>,&*<<<<<<<#85",
" X.**3###:=;9X.@%&2227***2<<<#4$X.#<##########:=6$.*<3333333:89",
" X.**#::::4>9X.@%&7272**2<<<<#4$X.:3#:::::::::-48$.*<#######-;9",
" X.**#----4>9X.&@*722***2<<<3#4>X.:#:---------=6;$.2#:::::::=;9",
" X.&*:====6>0X,&&&*2***2<<<33#=8X.=:-=========46;1.<#-------4>9",
" X.**-4444810X,*&&***<22<<33#:=8X.4:=44444444448$1.##=======4>9",
" X.=:6888;>0qX,#&***<<<<<33##-48X.4=46664666668$15.#:4444444610",
" XX$>111119wqX,#****<333###:-46>X.648;8888888>$155.:-6666666;50",
" XXw00000wwqXX.:<<<3#::--===468$X.>>>>>>>>>>>$155X.:=6666668>0e",
" XXXrrXXrqqXXt.6=4466;;8888888$XX.t5599999999995XX.:=668888;50e",
" ..,..,,.tXXt..tXXXXXXXXXXXXXXXXt..ttXXXXXXXXXXXXX.==68888>50qX",
" ++++@&*2<:48$,,,,,,.tt....,,,,,,,,,....tXX6446;;X.=468;>>50e06",
" oOooo+++%&&&&%@@&&*#6t.@@@@@@@&*2<3#:-=6XX6==481X.68>>1150eq1-",
" oOo++++++++++++++%&<4Xt=#:============4>XX$88>$5X.5599000eqX;#",
" oOoo+++++%%%%%%%%%&<4XXXXXXXXXXXXXXXXXXXXXXXXXtttttXXqqqqXX062",
" ooo+++++%@@@@@&&@@&<6XXt,,,.tttt.................ttttttttXX1-%",
" %++++++%@&&&&&&&&&&<6Xt6====48X.64444468;$1t.:&&&&&*<##:=XX;#%",
" @@%%%%@&&&&&&&&&&&&<6X.4=4446;r.4466668;>$1X.&&******2<#=rX62+",
" @@@@@@&&&&&&&&&&***<6X.46;;;;;q.8;>>>>>>$15q.&&2<<<<<2<#-rt-@%",
" @@&&&&&&&&&&&&*****36X.46;;;;;qtt5555599999q.&&***<<<<3#=rX#&@",
" @&&***********<<<<<36X.46;>>>;qttttt.tXqqqqq.&&****2<<<#-rt2&&",
" <<3######::::::::##:6X.46>>>>;qX<*&&&&*#:6;q.&&**22222<#=rt<*<",
" 66666666688886666666$X.46>>>;;qt%&******<=;q.&*<<<<<333:=r.4=6",
" XXXXXXXXXXXXXXXXXXXXXt.68>>>;;qt%&2<<<<<<=;qX6=4444444668rtXqe",
" X............,,,,,.....68>>>;;qt%&***<<<3=;qrXXXXXXXXXXXXXtXXq",
" X.:*&@&&&&&&&&&&&&&&8..66;>>;;qt%&****2<<=;qX...............tX",
" X:&@+oOyuuuuuuuuuyO%=t.86;;>>;qt%&**2222<=;q.<%&&&&&***<####48",
" X*@+oOyuuuuuyOOOOo+@:X.>;;;>>;qt+@&*2772<=;q.%%%@&&&**<<<<<3-6",
" X&+oOyyOOOOOoo++++%&:X.5551559qt+@&*2722<=;q.&@&&*<<<######:=6",
" X@+oOOOOo++++++%%@@*:X.XXXXXXXXt+@&*2227<=;q.*&*<###::::::::=6",
" X@++oo++++%%%%@@@@&*=X.......tXt+@&*7272<=;q.**<#:::::::::::-4",
" X@+o+++%%@@&&&&&@%&<=X.44===44Xt%&**722*<=;q.**#:::::::#::::-4",
" X&oo++@&&&&&&&&@%%@<=X.=-==--;Xt%&***2**<=;q.**3::##########:=",
" X&oo+%@&&&&&&&@@%%&<=X.=-44=-;Xt%&******<-;q.#*3#########3###=",
" X&o+%@&&&&&@&&@@@@&<=Xt=-==--;Xt+@&******-6q.#23#####3333333#=",
" X&+@&&&&&&&&&&&&&&&<4Xt4=44=4;Xt%&******&:6qt#*<3###33333333#-",
" X*&&***********&&*<#6XX>;888>1Xt&&*******-6qt:<<3#########33#=",
" X=<<<<<<<<<<<<<<*<#:6XXXXXXXXXtt:<<3<<<<<=8qX4::--------:---=4",
" qX644444444444444466>X.,iiii,,,,8444====46>XX$868;;;;8888;8;88",
" ttXXXXXXXXXXXXXXXXXXXX.,2+++2;,,XXXXXXXXXXXXXXXXXqqqqXXXqqqXXX",
" t,,,,.,.......,,,,,,.t.,&o++@4.,..................ttt...ttt...",
" &&&&&&&&<2t=*&&@@@@*=6X.%+@&<6t,%@%%%%%%%%%%%%%%%%%%%%%%@@@%%%",
" &&&@@@@&<3X*@@&&@@@*-;X,@@*2#>Xt&@@&&&&&&&&&&&&&&&@%%@&&&&&&&&",
" <<<*&&&<#:X*%@&****<=>X,@&<3:>Xt*&<<<<<<<<<<<<<<<<<<<<<<<<<<<<",
" ::#<<<<#-6X*@&*<<<3:6$X.**<#->Xt<<#:::::::::#:::::####::::::##",
" ===-::-=46X&&<3###:4;1Xt=::-4>rX:#============================",
" >>;;;;;;;;X&*#-==44;1XXXX866;9rt64;>>>>>>>>>>>>>>>;;;>>>>>>>>>",
" 999555551XX**-4668>1Xt4=Xq5>$5XX115999999999999999999999999999",
" XXXXXXXXXXt=:6>>$59X.=<:6Xr95Xt........tXXXrrqqqqqqqqqqqqqqqqq",
" XX,,.,,..,ii,tXXXXXX.&&<#6XXX.3*%%&*<#:-4;>19............tttXX",
" X.3@@@%@@&@&&@@@@%3t,@@*3->Xt<&%OOO+++%@@@@@@@@@@@@@@@@@@@&&@<",
" X,@+++%@@&&&&&&&<#4X.@&<#-;qX&++%%%@@@@@&&&&@@&&&&&&&&&&&&&&*#",
" X.@@&&&**<<<<<<<-85X.&&<:=8qX@@&***<<<<<<<<<<<<<<<<<<<<<<<<<:4",
" X.*&*<<<3####::-4>0X.&&#=4>qX**<333######################::-=8",
" X.#<3#:::::-==44810X.&*-48$qX:<<#::::::::::::-============446>"
};
