/* XPM */
static const char *rock_wall[] = {
/* columns rows colors chars-per-pixel */
"44 44 206 2 ",
"   c #FCA25E",
".  c #FCA068",
"X  c #FCA470",
"o  c #FC9C60",
"O  c #F0945C",
"+  c #EC905A",
"@  c #DC8854",
"#  c #B47044",
"$  c #986038",
"%  c gray25",
"&  c #646464",
"*  c #FCBC9C",
"=  c #FCBA96",
"-  c #FCC0A0",
";  c #FCC4A4",
":  c #FCC8AA",
">  c #FCB080",
",  c #BC7848",
"<  c #A0643C",
"1  c #3A3A3A",
"2  c #52402E",
"3  c #624834",
"4  c #84542E",
"5  c #885630",
"6  c #945E36",
"7  c #9C623A",
"8  c #A2643C",
"9  c #A8683E",
"0  c #A4663E",
"q  c #9E623A",
"w  c #8C5A32",
"e  c #6C4824",
"r  c #343434",
"t  c #F6985E",
"y  c #E88C58",
"u  c #B87446",
"i  c #606060",
"p  c gray21",
"a  c #503E2C",
"s  c #54402E",
"d  c #5E4632",
"f  c #7E522C",
"g  c #965E36",
"h  c #F69C66",
"j  c #E28A56",
"k  c #D68452",
"l  c gray36",
"z  c #FCC4A6",
"x  c #FCB68E",
"c  c #82542E",
"v  c #7A4E2A",
"b  c #CC7E4E",
"n  c #585858",
"m  c #FCBE9A",
"M  c #FCAA78",
"N  c #DC8654",
"B  c #7A5842",
"V  c #745440",
"C  c #70503C",
"Z  c #6A4C38",
"A  c #684624",
"S  c #604220",
"D  c #E68E58",
"F  c #D28250",
"G  c #BE7648",
"H  c #AE6C42",
"J  c #505050",
"K  c #DC9464",
"L  c #FCB086",
"P  c #FCAE80",
"I  c #F6A26E",
"U  c #F29864",
"Y  c #E08A56",
"T  c #C2784A",
"R  c #A2663C",
"E  c #A66A3E",
"W  c #C87A4C",
"Q  c #BC7448",
"!  c #AE6E42",
"~  c #9E643A",
"^  c #8A5832",
"/  c #684E3A",
"(  c #483A2A",
")  c #463A2A",
"_  c #3C3C3C",
"`  c #D88452",
"'  c #CC804E",
"]  c #C67C4C",
"[  c #464646",
"{  c #84624A",
"}  c #DC8E5C",
"|  c #E69260",
" . c #E69868",
".. c #E2905E",
"X. c #D68652",
"o. c #5A4634",
"O. c #D08050",
"+. c #C27A4A",
"@. c #AA6A40",
"#. c #B67044",
"$. c #644C38",
"%. c #4C4C4C",
"&. c #B87246",
"*. c #905C34",
"=. c #6E503C",
"-. c #70523E",
";. c #765844",
":. c #644422",
">. c gray29",
",. c #4E4E4E",
"<. c gray33",
"1. c #B27044",
"2. c #905A34",
"3. c #764C28",
"4. c #4A3C2C",
"5. c #8E644A",
"6. c #986E54",
"7. c #7A5A46",
"8. c #A88672",
"9. c #AC8A76",
"0. c #AC866E",
"q. c #AC8066",
"w. c #AC7C5E",
"e. c #A6785C",
"r. c #A2745A",
"t. c #926A52",
"y. c #8E6850",
"u. c #88664E",
"i. c #A86840",
"p. c #CE7E4E",
"a. c #945C36",
"s. c #8E5832",
"d. c #6E4826",
"f. c #EC925A",
"g. c #DC986C",
"h. c #ECA072",
"j. c #E69C70",
"k. c #DC8A54",
"l. c #8E5A34",
"z. c #764E2A",
"x. c #443626",
"c. c #FCB082",
"v. c #7E5C44",
"b. c #946A50",
"n. c #8E664E",
"m. c #604836",
"M. c #4E4030",
"N. c #FCAC7E",
"B. c #FCCCB0",
"V. c #6A523E",
"C. c #805E48",
"Z. c #7A5C48",
"A. c #7E5E4A",
"S. c #84624C",
"D. c #6E5440",
"F. c #564432",
"G. c #9C6038",
"H. c #564230",
"J. c #FCB488",
"K. c #FCB890",
"L. c #80502C",
"P. c #9E7860",
"I. c #988072",
"U. c #987868",
"Y. c #98725A",
"T. c #98684A",
"R. c #885E44",
"E. c #885830",
"W. c #FCC29E",
"Q. c #FCD4BC",
"!. c #78563E",
"~. c #6E4E3A",
"^. c #5A4230",
"/. c #A8826A",
"(. c #444444",
"). c #A27458",
"_. c #A88878",
"`. c #A87C62",
"'. c #F6A87C",
"]. c #FCA85C",
"[. c #EC9662",
"{. c #704A26",
"}. c #744C28",
"|. c #C87C4C",
" X c #FCA666",
".X c #FCD0B6",
"XX c gray32",
"oX c #484848",
"OX c #B26E42",
"+X c #B08062",
"@X c #B09484",
"#X c #7C5E4A",
"$X c #684A36",
"%X c #FCA670",
"&X c #FCBA92",
"*X c #F6A676",
"=X c #925C34",
"-X c #9C7258",
";X c #F2945C",
":X c #926C54",
">X c #EC9C6A",
",X c #F6AC80",
"<X c #8C6A52",
"1X c gray22",
"2X c #CE8A5E",
"3X c #AC6C40",
/* pixels */
"  . X X o O O O + @ # $ % & * * = = * * = - ; : * > o O , < 1 2 3 4 5 6 7 8 9 0 q w e r ",
". X X . t O O + y @ u $ % i * * = * * = = - ; ; * > o O , < r p r a s d f 5 5 $ g 4 e r ",
"X h . o O O + y j k , < % l * z * * * = * ; ; - x > o + , < r r 1 1 p r a s s f c v e r ",
"h O t t O + y j @ b u < % n x z * * * * * m m x > M t N u 6 1 3 B V C Z d s 1 a s A S p ",
"O + + + D j j k F G H $ % J K L L L x x L P P I I U Y T R f % E F W Q ! ~ ^ / a r ( ) _ ",
"D N N ` F ' ' ] G H 0 w % [ { } | |  . ...} } X.X.F T R c o.V X.O y O.+.u @.7 f a r _ % ",
"T #.#.# # ! ! ! @.0 6 $.% [ %.{ &.Q &.&.# ! ! ! ! ! ~ c o.% Q O O N ] +., # H *.e r % % ",
"V =.=.-.-.-.-.-.-.-.$.% [ J J J ;.V -.-.-.-.-.-.-.-.$.o.% -.Y O D ] u u u H @.5 :.p % % ",
">.[ [ >.>.>.>.,.,.,.,.,.<.n n n J >.>.>.[ % % V B -.% % % @.+ D ' 1.@.@.9 7 2.3.( 4.V 5.",
"6.7.%.<.8.8.8.9.9.9.9.0.q.w.e.r.6.t.y.u.7.% % i.u q % % % H p.T E a.2.2.s.5 3.:.r d.&.f.",
"D H [ J g.h.j.g.g.g.g.K } k.X.F ' ] +.u 7 % % $ ! s.% % % l.6 ^ z.d.d.d.d.d.:.x.1 s.F c.",
"O # % [ v.b.n.v.v.v.v.v.v.v.v.v.v.v.v.B / % [ $.-.m.% [ % o.s a ( ( ( ( ( ( ( p M.8 f.: ",
"O H % % [ %.%.[ % % % % [ [ >.>.>.>.>.>.>.>.J >.>.>.>.J >.>.% % % % % 1 1 1 1 % d.&.N.B.",
"O i.% [ V.7.{ C.V V $.% %.V.Z.A.A.A.A.S.A.A.Z.Z.Z.Z.Z.Z.Z.Z.;.;.D.D.D.$.o.F.% % s.F * : ",
"O i.% J $ H u # H i.w % %.w < i.i.i.i.H i.0 q q q q q q q q $ $ *.*.*.w v e 1 [ 8 f.- - ",
"O i.% <.H H 9 9 9 8 w 1 %.c $ 7 7 7 7 7 7 $ g g g g g g g g 5 5 5 5 5 5 v :.p [ &.M - = ",
"+ i.% <.# i.G.G.G.G.4 r %.H.f f f f f f f f f f f f f f f f 3.3.d.d.d.d.A ( _ [ F J.= K.",
"y i.% <.# i.G.g g g L.r [ _ a a a a a a a a a a a a a a a a a a ( ( ( ( ( 1 % %.f.> J.J.",
"N i.% <.# i.g *.*.*.4 r % P.I.U.U.U.U.Y.Y.T.R.3 r s Z Z Z Z 3 3 3 3 d a r % % J t M I I ",
"Q $ % <.# i.*.*.*.g E.r [ W.: L L L L M M t @ 7 r c 0 0 0 0 $ $ g g w 3.a 1 % J F } b b ",
"V $.[ <.# i.*.*.*.G.E.r J Q.; . h h h h h O @ i.r c $ $ $ $ 6 2.s.5 c v e r % %.B !.~.~.",
">.>.J <.# i.*.*.*.G.E.r <.Q.; . h h O O O + @ i.r s d d d d d ^.^.s s s a r [ %.% 1 1 1 ",
"/.Z.<.<.# H g *.*.G.E.r <.Q.; X X X h t O + @ i.r 1 (.(.(.(.(.(.(.(.(.(.(.(.J J [ % % % ",
"x ! J <.u # G.g *.g 4 r <.Q.; X X . . o t O @ i.r >.)._./././././.`.`.`.).6.6.6.C./ F.% ",
"= ] [ <., # q G.g g 4 r n Q.; M X o     o O @ i.r <.'.* x J.> > > X X h O D D j G $ e % ",
"J.O.% <., # < q q q E.r l Q.; > X o ].  o O @ i.r <.x = x J.M I I h [.D D D D N +.< {.1 ",
"M O.% <., # < < < < w r l Q.; > X o   o   O @ i.r <.M J.M I [.D D Y k k k k k O., < }.r ",
"X ] % <., # 0 0 0 0 *.r l Q.; > X   o     O @ i.r <.X M h D k k k O.O.O.O.O.O.O.+.0 }.r ",
"h , % <., u i.i.H H *.r l Q.; M X ].o   . O @ i.r <.X X D k O.O.O.O.O.O.k O.O.O.|.H f r ",
"O , % <., , H H # u $ r l Q.; X X  Xo . X O @ i.r <.X X j O.O.k k k k k @ k k k b # E.r ",
"O , % <.] +.# # u +.< r l Q.; X X X . X X O j H r <.[.X y k k @ @ @ @ @ @ @ @ @ k u w r ",
"O , % <.O.|.u u +.|.< r l Q.; M X X X X X h + u r <.@ . y @ @ @ @ @ j j j j j j @ , $ r ",
"O u % <.] |., , |.+.< r l Q.; M X X X X X M h , r <.@ . + j @ @ @ j y y y y y y @ +.< r ",
"D H % <.1.&.1.1.&.1.6 1 l Q.; X X X X X X M X , r <.@ h O y @ @ @ j j j j j y y @ +.< r ",
"k i.% <.7.V ~.~.~.~.$.% l .X- X X M M M M X h , 1 J |.Y Y ` F F F F F F F F ` ` ' u $ r ",
"Q 7 % <.<.XX%.%.%.oX,.,.l : * X M > J.J.> X O u % [ ~ &.Q # OXOXOXOXOXOXOXOX# # ! R c r ",
"V / % <.l +X@X@X@Xw.#Xl l : - M > J.K.K.> X D H % % $.-.V Z $X$X$X$X$X$X$X$XZ Z Z 3 s r ",
",.>.[ <.l %X: ; ; M 9 n l .X; x x = K.J.> h k 8 [ [ >.,.>.(.(.(.(.(.(.(.(.(.(.(.(.(.(.(.",
"w.u.7.>.n x : m &X*XH J l Q.B.- - * J.M I Y T =X[ %.n w./._._._._._._._._._._._._._._._.",
"o ] 7 % n = m P %XD 8 [ n Q.Q.; - x M h Y T ~ $.[ <.-Xo > * * * * * = x x x x x x x x x ",
"t T 5 % l P J.h ;Xk q % <.Q..X&Xx I U Y T R $.[ <.:Xj . > L L L L L *XI I I I I I I I I ",
"Y H v % n . > O j b < % <.Q.: M I D F Q R / [ <.:XF ;XX %Xh U U [.[.D Y Y Y Y Y Y D D Y ",
"T 8 {.% J k.>XD k +.$ _ J W.,X[.@ |.! $ / % J <Xb j t h f.D N N F ' ' ] ] ] ] ] ] ' ' ] ",
"R s.F.% [ v.G |.T 1.5 1X%.2XF T # R 2.$.[ [ A.u Q W b b T T Q &.# 3XE E E E E E E E E E "
};
