/* XPM */
static const char *smooth_brick[] = {
/* columns rows colors chars-per-pixel */
"64 64 55 1 ",
"  c #763F03",
". c #3D491E",
"X c #3C4B22",
"o c #4A4B1C",
"O c #584D1B",
"+ c #5C501E",
"@ c #6C470D",
"# c #7A470B",
"$ c #694C18",
"% c #784C16",
"& c #69511D",
"* c #79521B",
"= c #7F500D",
"- c #484D22",
"; c #574E22",
": c #4C5128",
"> c #595328",
", c #5B5834",
"< c #4E5631",
"1 c #694F22",
"2 c #754E22",
"3 c #685428",
"4 c #775528",
"5 c #685935",
"6 c #765B36",
"7 c #7A613C",
"8 c #6D603C",
"9 c #5B5E44",
"0 c #685E43",
"q c #745E42",
"w c #6B634A",
"e c #786446",
"r c #6B6859",
"t c #766A58",
"y c #77715D",
"u c #6E6B63",
"i c #726D64",
"p c #777369",
"a c #7C7A73",
"s c #6F706B",
"d c #5E604A",
"f c #834B0C",
"g c #88500E",
"h c #834D14",
"j c #855419",
"k c #915616",
"l c #904F0E",
"z c #835927",
"x c #825D34",
"c c #905D22",
"v c #82623B",
"b c #816644",
"n c #837D75",
"m c #81786E",
"M c #828078",
/* pixels */
"154422*662441451>>3&51&&&&13&$4*%542*215uuurru0$&1&%54222&3>O$&2",
"%;&h##gz4ghh%j6$;$&%34=$%%23#%=f#6hgf##*uiuuii,O*%=f44gh%%&3%%%$",
"5654656e646443646e76qq65>>,,66eeqw66666quiut99,-,>33664354653635",
"**4*4322%%*%hhkhh64%**4*$%&*44tsuisuuusiipp6oo$2;;$+hh$;>&j*j%$*",
"2*4j444**%*hjjj*je2**2zj%*%**2tsipppiuiipna6*&$;-;O+4*;:>&&*&$$*",
"3,56665>>755555557656443443513qe6wwqq55wew,566>oo;;;5>>::>,,;;::",
"$;$$%%&>3%$$@O;$fg=#4%####%3#%%%%3%##$#22#*%*2-O%##h2%%&#@&3$$$$",
"--;444265&;33-:34x4z842244464311+52424z66441:;.o&44+562&2*&->341",
"++142>31;O->1oO24z4z**456z444&11&*226smpriirrypwrt21442+14&;336*",
"llhghOO&$$;O@$%$=fggfhg4%f#%#%*jj=jfvanapppaupnpuegklfh==%#**@xl",
"33435,,556563+3,8vvv7eebe66>>5353;>6epirpytywwrrtw5657v666666664",
"*52&**&3>*%h*&-444zj8anapis6#11&$-$$&j$>2h*$$;;&*$2$:3jj%hj4hzjj",
"je4***&33$*$*13*%%*jbaaapis6#*j4*:O@%%j44*OX->3%21%#>1*zj%*4j*2*",
"5e65e65>5563>>566e66eeeeeqq656853>.;4555663,>1666412>3355::5e633",
"==%f4%#%#=#%$*%ff6##@%ff##%==%6%h%o&f#%###23#hj%hjh#@%h$+1&*%=g=",
"&444e4**$&+&+124z52221z43244%&>121:;1244226624433324;64534444*$*",
"3::333>:;;+&o-,x6vv6<X444466&XX-1>643346ipaiisw+:&33:,32&4>343+3",
"z:;*@#%OO$%h=*6kkcz*;-O#fh26Oo+&h4jjz*#4anpuis6=*hj+-o$%%*44=jk*",
"3>;336655658v7w7v37685-3436w66:>6e565746pytttw54:57:X<:>56qev55>",
"##$$jj**4jz6z4zjzj*jj2*,4=2**&&**zz*;4jjjgjj%****52*$*&&%%jjj*>$",
"&%%*jj**jj46*jhgj%=hh*2>*k*%$$$*%*jh64h%%j*44z4425&*%##@##hhkj6%",
"35,>3665643:>;qttrwtt3:>>65643366534xxx>:>36>3qx3>;355>>34,6z444",
"#1oo$%#z4#Oo.oesapuiw&$$@=*3fh*j*6hlggl&o$##@$6h*2&&3;##f#$3g%##",
"$5--O2*464>X-:wuuuus9o>44+;-&2244ezc222;X>1+445>o1>5>:4zz&;,31&&",
"&;%O-%&24441*2&446433O134;-o&z,>444z4z*o$j45111;O&44;34ev11311&*",
"=@f@1$#=ffh%f%#ff>%*%%###hh*f#3%*h&hgf@o%lj4##$#ff*%%%f4zgjjjgh=",
"3>;>,>o3>>333>>345;33;24364563<3>>3>355,>66533>244144>2x63>36534",
"+:;+$Oo--O$O$&3#%%*g1$%&&*&-$$@@$>h$&*@44#*%%&>$@%%h3:+*$$oXoOjj",
"$--&$O;-;*%$@%6#=fhg44%&*&O;%%%#$>$####21#hh##6%$$2%>>o+4*;-Oo**",
"33;>5:>>;6,>o>64466>563>>:X;646535>>5563866444663>35>>:>66353353",
"hh%%%#%=f#*1@#=#=jj*&*#&$@$$#f=#gf$*5$#%j*%%hz*h=1#####=fhgh%$3%",
"4241**2**%46*%*244364>1652&132$&&$4*5422243143O3453**2*%&24*2;,4",
"5>31zzz6rrrurr012433,:1;>1::33;34621244534113O-;3431,>1&&$1,4443",
"$>hjjjkzuuiiis6#hf==>$f##=$&@$%gg6###%%+1##=@&O@%h%%3$%h#@$4hhh&",
">5346>46wwwtwwq46676w5553O;:>:3650665055wq5555513x3;55>5>>55455>",
"@@$@642224*h*%%**64zzzzz4;O+1$0uuruuuiiiuur4*jjj4zj&%*$34$$$&*%%",
"%***7x4444***%*2*vzjjkjjj4jj*&wruuuuuspppisvj*jjjcc4**%32**%$*%%",
"6,,5663,ww09wr534644eytyyype5,,,5w66666e,,563364666::>56644>:<68",
"*oO@###;rrrruu5#f#h#6appppp5%$$%&5%ff#f$o$O$hgxj%%%$;+%gg$&>.$jj",
"4:13433,rrrusse24z44wpipppsq3;>55555444553334xe65;3z76444355>4z4",
"12*1z2:-->>5v6544444444666444++344446v64443>55343:>3344z6633z3<3",
"O$$O&$o.O*13fjhfhjkkkjj66%2*%*=@hhg#zjffgj*%%ff#%6%h=jjh===jh$-o",
"><,5,,3>5x63666665373>;e66556566veeee766v6v666666w6665>64443;>55",
"&543*2$1;*4z438>3334-.O*%j4642**jeaMpnnavjjh%*ezjjjj3>$**%13%**4",
"14242*%35*j**&51O2z4:;$***46&2*%%waapanMxj*%hj6jj***44%*jj;:*j**",
"5534744;3343;4>;O,,>,-->556665,;o6eqew7b644746>34>3335>,ee,-3656",
"ff%#4*###%=hh%*2%4-o+Oooo&hfh&6%%%*h*o#g%%*xf%&O%j**2&O:6%$%#ghh",
"2445563>366x444445<5>33>:4242:,2433:->4333474z6:144464355*22*z44",
"*enprurr:4666304444x844434451&&24::-O;1:,33334q1132256442&252434",
"#6npiiuu2h%%$$+##=hf6kffh%*2#@###3&@=$@&1@*22%122%##1*=#%#@3#%#%",
"3wir9rtyv43,qew555e7tebb7:,533444q54,>56646666,,3366qe6556565665",
"2*%#@=gh*%@rnupprpppiipa4*z*1z**%%%=3*=%jj%%%%$OO12**%%$*jjzj352",
"$%%h$@=*hj%tpryappppiipaxj4jzzz*%%%%64%$*j%%%@#@O-1%%##@$hjjk&>%",
";>44;;35566q5,,66666qebbvvew56666q66676-wptttw,::>5>:;;:>55->362",
"%3=####33#f##@O ### %#ffllz3#####4h#ff#2ppiiuu,**%k*>O$$=#$;O*jh",
"+511$4255$**2$,O1&$$3442**1:$$&246424443ipiiisw4444463;$$$35z35>",
";1>>:>443&44z*&-;>>;331211-o1>3234433441424e4z444142*&$>>+224>3>",
"jj=@1O$##==%==%oO>%$@f#%*h$o$+;## ##@@fgf#jvlfhgg#fgf##$;o@h%@#j",
"46666>>3;>>>655>>>3113355>3-->:545;-:-563zx713565>423646<->5646x",
"#3*z$o%2&$+$%$3@@#%%5<+1**&;$$&&*:-X;;+54jj***4%%$%#42%*&%*3*%h%",
"%3##@O$24%%##@3#%hhf43$$**23@#$$#o:$++%x7hz4jj;$##%#42%%jj;3$O$%",
"664&3135556w09rrttytrw09>>;311313:>45344667566>3352446444655X.-4",
"*j%hh**#%#*rruuuuiapuurr&$@##%%h##%fzz%h%j=$**&hh5*f=%jg=hhOo.o%",
"4644244**$3yruuuiipprrur>;221*11*$**664444414z*2*51443441&2;o-->"
};
