/* XPM */
static char *west[] = {
"16 16 3 1",
"b c #A9745B",   /* ladrillo marrón */
"k c #4A2E2A",   /* marco oscuro */
"w c #C0D8FF",   /* cristal */
"bbbbbbbbbbbbbbbb",
"bbkkwwkkbbkkwwbb",
"bbkkwwkkbbkkwwbb",
"bbbbbbbbbbbbbbbb",
"bbbbbbbbbbbbbbbb",
"bbkkwwkkbbkkwwbb",
"bbkkwwkkbbkkwwbb",
"bbbbbbbbbbbbbbbb",
"bbbbbbbbbbbbbbbb",
"bbkkwwkkbbkkwwbb",
"bbkkwwkkbbkkwwbb",
"bbbbbbbbbbbbbbbb",
"bbbbbbbbbbbbbbbb",
"bbkkwwkkbbkkwwbb",
"bbkkwwkkbbkkwwbb",
"bbbbbbbbbbbbbbbb"
};
