/* XPM */
static char *_7d4a11969714ca3dc1b8e5f93ea0792JVo6NyEMMDFQvX7p[] = {
/* columns rows colors chars-per-pixel */
"64 64 13 1 ",
"  c #008080",
". c #484848",
"X c gray33",
"o c #7C7C7C",
"O c #B4B4B4",
"+ c #C0C0C0",
"@ c gray66",
"# c gray55",
"$ c #989898",
"% c #646464",
"& c gray22",
"* c #2C2C2C",
"= c #D0D0D0",
/* pixels */
" .X.oO+OOOO+OO@O@+OO+OOO+O+O+@O@#.X.oO+OOOO+OO@O@+OO+OOO+O+O+@O@",
" .X.oOO+OOOOO@O@+O+O@OOOO@O+@O@@#.X.oOO+OOOOO@O@+O+O@OOOO@O+@O@@",
" .X.oOOO+OOO@O@O@+@+@@O@O@@@@@@O#.X.oOOO+OOO@O@O@+@+@@O@O@@@@@@O",
" .X.oOO@O@@@@@O@O@@@@@@O@+@@OO@@#.X.oOO@O@@@@@O@O@@@@@@O@+@@OO@@",
" .X.o@$O$@@@@$@O@@$@O@O$@@@$@@$@#.X.o@$O$@@@@$@O@@$@O@O$@@@$@@$@",
" .X.o@#$@$#@$@$@$$@$$@$@@@$@#$@$#.X.o@#$@$#@$@$@$$@$$@$@@@$@#$@$",
" .X.o###$#$#@#@$#@$#$#$#$#@#$#@$#.X.o###$#$#@#@$#@$#$#$#$#@#$#@$",
" .X.o$#$#$$$#$##@$$$#$#$#$#$#$###.X.o$#$#$$$#$##@$$$#$#$#$#$#$##",
" .X.%%%%%%%%%%%%%%%%%%%%%%%%%%%%%.X.%%%%%%%%%%%%%%%%%%%%%%%%%%%%",
" ..&*****************************&.&****************************",
" ...............................................................",
" XXXXXXXXXXXXXXXXXXXXXXXXXXXXXXXXXXXXXXXXXXXXXXXXXXXXXXXXXXXXXXX",
" ===========+O@$.X.$@O+=====================+O@$.X.$@O+=========",
" OOO+O+O+O+O+O+#.X.o++++++++++++OOOO+O+O+O+O+O+#.X.o++++++++++OO",
" OOOO+O+O+OOO+O#.X.o++O+++OO+OOOOOOOO+O+O+OOO+O#.X.o++O+++OOOOOO",
" OOO+O+O+OOOO@O#.X.oOO+OO++OOO@OOOOO+O+O+OOOO@O#.X.oOO+OO++O@OOO",
" +O@OOOO@O+@O@@#.X.oOO+OOOOO@O@+O+O@OOOO@O+@O@@#.X.oOO+OOOOO@+O+",
" @+@@O@O@@@@@@O#.X.oOOO+OOO@O@O@+@+@@O@O@@@@@@O#.X.oOOO+OOO@O@+@",
" OO+OOO+O+O+@O@#.X.oO+OOOO+OO@O@+OO+OOO+O+O+@O@#.X.oO+OOOO+OO@+O",
" +O@OOOO@O+@O@@#.X.oOO+OOOOO@O@+O+O@OOOO@O+@O@@#.X.oOO+OOOOO@+O+",
" @+@@O@O@@@@@@O#.X.oOOO+OOO@O@O@+@+@@O@O@@@@@@O#.X.oOOO+OOO@O@+@",
" @@@@@O@+@@OO@@#.X.oOO@O@@@@@O@O@@@@@@O@+@@OO@@#.X.oOO@O@@@@@O@@",
" $@O@O$@@@$@@$@#.X.o@$O$@@@@$@O@@$@O@O$@@@$@@$@#.X.o@$O$@@@@O@@$",
" @$$@$@@@$@#$@$#.X.o@#$@$#@$@$@$$@$$@$@@@$@#$@$#.X.o@#$@$#@$@$$@",
" $#$#$#$#@#$#@$#.X.o###$#$#@#@$#@$#$#$#$#@#$#@$#.X.o###$#$#@$#@$",
" $$#$#$#$#$#$###.X.o$#$#$$$#$##@$$$#$#$#$#$#$###.X.o$#$#$$$##@$$",
" %%%%%%%%%%%%%%%.X.%%%%%%%%%%%%%%%%%%%%%%%%%%%%%.X.%%%%%%%%%%%%%",
" ***************************************************************",
" ...............................................................",
" XXXXXXXXXXXXXXXXXXXXXXXXXXXXXXXX.X.XXXXXXXXXXXXXXXXXXXXXXXXXXXX",
" .X.$@O+=====================+O@$.X.$@O+=====================+O@",
" .X.o++++++++++++OOOO+O+O+O+O+O+#.X.o++++++++++++OOOO+O+O+O+O+O+",
" .X.o++O+++OO+OOOOOOOO+O+O+OOO+O#.X.o++O+++OO+OOOOOOOO+O+O+OOO+O",
" .X.oOO+OO++OOO@OOOOO+O+O+OOOO@O#.X.oOO+OO++OOO@OOOOO+O+O+OOOO@O",
" .X.oO+OOOO+OO@O@+OO+OOO+O+O+@O@#.X.oO+OOOO+OO@O@+OO+OOO+O+O+@O@",
" .X.oOO+OOOOO@O@+O+O@OOOO@O+@O@@#.X.oOO+OOOOO@O@+O+O@OOOO@O+@O@@",
" .X.oOOO+OOO@O@O@+@+@@O@O@@@@@@O#.X.oOOO+OOO@O@O@+@+@@O@O@@@@@@O",
" .X.oOO@O@@@@@O@O@@@@@@O@+@@OO@@#.X.oOO@O@@@@@O@O@@@@@@O@+@@OO@@",
" .X.o@$O$@@@@$@O@@$@O@O$@@@$@@$@#.X.o@$O$@@@@$@O@@$@O@O$@@@$@@$@",
" .X.o@#$@$#@$@$@$$@$$@$@@@$@#$@$#.X.o@#$@$#@$@$@$$@$$@$@@@$@#$@$",
" .X.o###$#$#@#@$#@$#$#$#$#@#$#@$#.X.o###$#$#@#@$#@$#$#$#$#@#$#@$",
" .X.o$#$#$$$#$##@$$$#$#$#$#$#$###.X.o$#$#$$$#$##@$$$#$#$#$#$#$##",
" .X.%%%%%%%%%%%%%%%%%%%%%%%%%%%%%.X.%%%%%%%%%%%%%%%%%%%%%%%%%%%%",
" .X.&***************************&&.&&***************************",
" ...............................................................",
" XXXXXXXXXXXXXXXXXXXXXXXXXXXXXXXXXXXXXXXXXXXXXXXXXXXXXXXXXXXXXXX",
" ===========+O@$.X.$@O+=====================+O@$.X.$@O+=========",
" OOO+O+O+O+O+O+#.X.o++++++++++++OOOO+O+O+O+O+O+#.X.o++++++++++OO",
" OOOO+O+O+OOO+O#.X.o++O+++OO+OOOOOOOO+O+O+OOO+O#.X.o++O+++OOOOOO",
" OOO+O+O+OOOO@O#.X.oOO+OO++OOO@OOOOO+O+O+OOOO@O#.X.oOO+OO++O@OOO",
" OO+OOO+O+O+@O@#.X.oO+OOOO+OO@O@+OO+OOO+O+O+@O@#.X.oO+OOOO+OO@+O",
" +O@OOOO@O+@O@@#.X.oOO+OOOOO@O@+O+O@OOOO@O+@O@@#.X.oOO+OOOOO@+O+",
" @+@@O@O@@@@@@O#.X.oOOO+OOO@O@O@+@+@@O@O@@@@@@O#.X.oOOO+OOO@O@+@",
" @@@@@O@+@@OO@@#.X.oOO@O@@@@@O@O@@@@@@O@+@@OO@@#.X.oOO@O@@@@@O@@",
" $@O@O$@@@$@@$@#.X.o@$O$@@@@$@O@@$@O@O$@@@$@@$@#.X.o@$O$@@@@O@@$",
" @$$@$@@@$@#$@$#.X.o@#$@$#@$@$@$$@$$@$@@@$@#$@$#.X.o@#$@$#@$@$$@",
" $#$#$#$#@#$#@$#.X.o###$#$#@#@$#@$#$#$#$#@#$#@$#.X.o###$#$#@$#@$",
" $$#$#$#$#$#$###.X.o$#$#$$$#$##@$$$#$#$#$#$#$###.X.o$#$#$$$##@$$",
" %%%%%%%%%%%%%%%.X.%%%%%%%%%%%%%%%%%%%%%%%%%%%%%.X.%%%%%%%%%%%%%",
"                                                                ",
" .X.$@O+=====================+O@$.X.$@O+=====================+O@",
" .X.o++++++++++++OOOO+O+O+O+O+O+#.X.o++++++++++++OOOO+O+O+O+O+O+",
" .X.o++O+++OO+OOOOOOOO+O+O+OOO+O#.X.o++O+++OO+OOOOOOOO+O+O+OOO+O",
" .X.oOO+OO++OOO@OOOOO+O+O+OOOO@O#.X.oOO+OO++OOO@OOOOO+O+O+OOOO@O"
};
